/* XPM */
static char *b81dde1b984a4b0aea5393618befe074QjTCh3R2tbwrec0m[] = {
/* columns rows colors chars-per-pixel */
"50 50 255 2 ",
"   c None",
".  c #030501",
"X  c #0C0502",
"o  c #040B02",
"O  c #0A0B07",
"+  c #160904",
"@  c #021402",
"#  c #031C02",
"$  c #0B1908",
"%  c #171808",
"&  c #0B1911",
"*  c #181812",
"=  c #0E0E19",
"-  c #271C18",
";  c #361812",
":  c #24160D",
">  c #072807",
",  c #162908",
"<  c #073709",
"1  c #153408",
"2  c #062714",
"3  c #182A16",
"4  c #093A16",
"5  c #153918",
"6  c #252908",
"7  c #253709",
"8  c #292619",
"9  c #362719",
"0  c #263817",
"q  c #373718",
"w  c #143825",
"e  c #2C2A24",
"r  c #352A24",
"t  c #3B332A",
"y  c #3D3938",
"u  c #2B3A2C",
"i  c #291F20",
"p  c #41281A",
"a  c #48381B",
"s  c #483728",
"d  c #48393A",
"f  c #52352A",
"g  c #074B08",
"h  c #184408",
"j  c #085406",
"k  c #17590A",
"l  c #0A4917",
"z  c #174517",
"x  c #075719",
"c  c #155A19",
"v  c #264816",
"b  c #3B4816",
"n  c #34581A",
"m  c #2C5311",
"M  c #0D6519",
"N  c #166818",
"B  c #0B7E1C",
"V  c #0E7E17",
"C  c #18781B",
"Z  c #136A0C",
"A  c #286517",
"S  c #237719",
"D  c #316B12",
"F  c #184725",
"G  c #0B5A24",
"H  c #185727",
"J  c #0D4D31",
"K  c #354322",
"L  c #275729",
"P  c #265537",
"I  c #355430",
"U  c #196B2D",
"Y  c #176827",
"T  c #0C7E28",
"R  c #167525",
"E  c #1A7423",
"W  c #15742C",
"Q  c #137C2C",
"!  c #177A27",
"~  c #196A36",
"^  c #0E7932",
"/  c #197435",
"(  c #0C6121",
")  c #266828",
"_  c #386A24",
"`  c #237928",
"'  c #37772A",
"]  c #266936",
"[  c #237535",
"{  c #3A7D33",
"}  c #475A14",
"|  c #545717",
" . c #514D10",
".. c #6D5A14",
"X. c #537316",
"o. c #68721A",
"O. c #494728",
"+. c #53472A",
"@. c #49582A",
"#. c #595828",
"$. c #494836",
"%. c #544936",
"&. c #575835",
"*. c #475C32",
"=. c #684728",
"-. c #775828",
";. c #6D5535",
":. c #477829",
">. c #446736",
",. c #556834",
"<. c #487837",
"1. c #516F2A",
"2. c #6D6939",
"3. c #385342",
"4. c #357054",
"5. c #1F6940",
"6. c #474844",
"7. c #574B46",
"8. c #51564F",
"9. c #65584A",
"0. c #755D43",
"q. c #685B59",
"w. c #725450",
"e. c #51734E",
"r. c #64654C",
"t. c #7A6647",
"y. c #686856",
"u. c #746656",
"i. c #71784E",
"p. c #6B5D61",
"a. c #58716A",
"s. c #7A6B68",
"d. c #6C796A",
"f. c #787775",
"g. c #726C6E",
"h. c #996D3B",
"j. c #977A38",
"k. c #886F35",
"l. c #A37A34",
"z. c #8B6829",
"x. c #855B4A",
"c. c #856949",
"v. c #867649",
"b. c #887356",
"n. c #976B48",
"m. c #85776C",
"M. c #937B66",
"N. c #927A79",
"B. c #A57A52",
"V. c #0B811E",
"C. c #1E831D",
"Z. c #348A1E",
"A. c #2B8619",
"S. c #078126",
"D. c #178526",
"F. c #288726",
"G. c #38852A",
"H. c #26942B",
"J. c #3C9B2C",
"K. c #369427",
"L. c #388833",
"P. c #3C9D33",
"I. c #369734",
"U. c #2A9131",
"Y. c #3FA527",
"T. c #3EA42A",
"R. c #34A324",
"E. c #3CA334",
"W. c #4D8E17",
"Q. c #709714",
"!. c #47882C",
"~. c #469C29",
"^. c #599A25",
"/. c #478738",
"(. c #499C36",
"). c #589736",
"_. c #528931",
"`. c #6E9231",
"'. c #42A425",
"]. c #42A32B",
"[. c #4AA12B",
"{. c #43A232",
"}. c #48A236",
"|. c #56A234",
" X c #78B320",
".X c #3A837B",
"XX c #539548",
"oX c #6C8655",
"OX c #52A442",
"+X c #4D8463",
"@X c #68906E",
"#X c #7FA560",
"$X c #90931F",
"%X c #8F8D32",
"&X c #B5882B",
"*X c #AB912E",
"=X c #8EB231",
"-X c #B0AC3D",
";X c #CAAF32",
":X c #8FC725",
">X c #B6C733",
",X c #91C61F",
"<X c #D4D136",
"1X c #E8D731",
"2X c #DAEA30",
"3X c #E5EE32",
"4X c #95855A",
"5X c #918C51",
"6X c #95B054",
"7X c #AFB252",
"8X c #988779",
"9X c #948967",
"0X c #A8977A",
"qX c #B39473",
"wX c #95B372",
"eX c #B9A579",
"rX c #C7B54D",
"tX c #C6A272",
"yX c #B0C957",
"uX c #D3CF4F",
"iX c #EADD4E",
"pX c #E9ED48",
"aX c #D9E170",
"sX c #7B8482",
"dX c #599D85",
"fX c #8F8E83",
"gX c #A89A84",
"hX c #AB9A95",
"jX c #94AD89",
"kX c #B6A686",
"lX c #B5A595",
"zX c #A9B78E",
"xX c #AFB2B1",
"cX c #D4AB95",
"vX c #C8B797",
"bX c #CFB38B",
"nX c #C5AEA5",
"mX c #CAB6A7",
"MX c #D6BCA7",
"NX c #E5BDAF",
"BX c #E8BD9A",
"VX c #BBC294",
"CX c #B7C8B5",
"ZX c #95C598",
"AX c #CDC899",
"SX c #D6C8AB",
"DX c #D3CEB7",
"FX c #E9D4B4",
"GX c #F7EEB4",
"HX c #C0EE84",
"JX c #D9DACE",
"KX c #EFDBCC",
"LX c #F5ECD1",
"PX c #F0F2E4",
"IX c #DDEBD2",
/* pixels */
"                                      DXv.=.-.j.h.h.h.h.l.h.-.=.kX                                  ",
"                                    JXvXk.z.z.&X&X&X&X&Xl.h.z...tXGXGXLX                            ",
"                                  f.$.+.%X-X<X1X1X3X1X;X$Xk.h.l.7XiXpX7XwX                          ",
"                                  g.e q `.>X<X2X3X3X1X>X$X%X%X$X<XpX1X*X*XvX                        ",
"                              sXa.8.I :.`.=X,X,X,X,X:X XQ.`.`.$X>X2X2X*X*XqXeXSX                    ",
"                              6.w I oXXX^.^.^.^.^.^.[.[.^.^.^.Q.>XpX<X*Xl.l.j.eXFXPX                ",
"                        JXCXfXI v n :.:.' /.{ G.G.G.L.G.Z.Z.Z.W.=XuX>X7X*X*X*XrXbXSXKX              ",
"                        fXu 5 >.:.D Z j g g l l x j j j j j j h D `.%X7XrXuXiXuXj.c.9X              ",
"                    PXCX@X5 4 <.<.S k j j g j j g g g g j j j k D !.`.6XyXuXiXrXj.c.4X              ",
"                    f.6.I F c c Y C A.Z.A.Z.G.L.G.G.L.G.G.G.L.L._ Z D X.o.o. ...-.M.gX              ",
"                    6.& l ~ U k j S J.E.Y.].].].[.[.[.(.[.}.P.~.Z k j N S 5 = s 2.9X0X              ",
"                    I $ < c Y N S K.J.'.T.Y.'.'.].[.[.[.[.}.{.J.A.D D Z M 2 = d N.vXSX              ",
"                    I O > g c L.(.{.P.T.'.T.Y.Y.].].].[.].{.{.[.'.^.' N x 2 O w.MXKX                ",
"        LXLXFXKXPXlX$.> < g N F.L.(.{.T.Y.Y.Y.T.T.T.T.E.].~.T.[.W.!.' ( G 4 o 7.nXKXLX  KXPX        ",
"      PXDXeXqXcXNXhXO.1 j Y N k Z A.J.'.T.Y.Y.T.T.T.T.T.].{.~.~.S Z x Y ~ l 1 &.hXMXnX8XvXFX        ",
"      PXFXeX4XtXcXqX@.h N ` N j g C J.{.'.T.Y.T.T.T.E.T.{.{.(.J.V j j Y / x h &.gXnXhXM.0XFX        ",
"    nX0XeXtXBXBXFXkX*.h c E C M Z F.(.E.].Y.Y.Y.Y.Y.Y.T.].(.{.J.C.Z Z E E k h ,.eXDXSXAXbXqXm.xX    ",
"    fX;.n.bXFXGXLXvX>.z x E W R R U.P.(.{.T.'.Y.Y.'.'.'.].(.(.E.H.C.D.C S N g ,.VXGXLXLXBXx.w.hX    ",
"      8X0XeXbXvXAXzXI l ( W W M M [ U.I.P.].'.Y.'.'.'.'.{.P.I.U.! N N ` E c g _ wXAXVXvXcXN.fX      ",
"        nXM.-.c.9Xi.P J G U ~ x x Y W F.J.].J.Y.'.'.'.[.].I.H.! M l G ~ ] G 4 L oX5X2.;.c.          ",
"          m.;.k.5Xe.P J U ] H x g G W ` I.J.T.Y.'.[.[.~.J.H.D.D.x 4 J ~ 5.J J 5.i.b.c.t.t.          ",
"            gX4Xo.,.+X+XI c l > > x U ` D.F.K.T.T.].~.K.A.D.S./ 4 2 & w J 4..Xa.9.c.M.              ",
"              4X#.,.XX@X>.h 1 # # l ~ / E C.H.T.E.E.I.U.C B S.U 4 & = & J 4.dX@X8.9.M.              ",
"              u.O.*.#XwXoXO.7 > @ z ] / R D.D.H.H.U.U.F.D.Q Q [ 4 @ & e I @XZX#XO.%.q.              ",
"              d 8 O.wXaX5X#.a $ O F ] / W B V.V.V.D.S.^ Q Q [ ~ l @ % a  .6XHX6Xb e $.              ",
"              f.q.2.=X7X5X-.+.% @ 5 H U W T T S.S.S.^ ^ ^ [ U Y 4 @ 6  ...$X=X=X,.y.f.              ",
"                hXs.#. .=.v.2.6 @ 2 z H U Q T S.S.T ^ ^ ^ R c G < @ 8 -.z... .,.9XjX                ",
"                    7.i =.c.r.3 @ 2 3 5 L / S.S.S.S.^ T W M g 4 2 @ 8 r.v.f 6 p.                    ",
"                    f.q.u.%.q $ o O % 5 L W Q S.V.S.V.R R c < 2 & o $ 9 O.u.9.sX                    ",
"                        d.3 o o X . . $ L [ ! B V.V V V C v $ . . . . o $ fX                        ",
"                      a.e.w 2 & & O o # z N N B V.V C N A v $ . O & 2 2 > y.d.                      ",
"                    8.u F H F F 5 # o > 4 l M R T T E c h 6 % X = 3 F H P z 3 d.xX                  ",
"                  g.d 3 L e.e.H l > < > < l x W ^ ^ ~ H < , > & 2 w P 4.+XP 2 8.@X                  ",
"              fXg.7.p r y.zXjXL < G G l < > l / / / ~ l > > z F l 4 3.jXZXa.P P 8.f.fX              ",
"              d - + ; +.0XJXCXe.z H ] H > # l ] ~ 5.~ 4 > < H [ H l e.CXIXjX8.u & i y               ",
"              s p 9 a f y.8Xm.@.K L ] H < # 5 F H H H 4 > < G ) L v *.@XfXy.&.d e t t               ",
"          r : ; f =.=.=.8 + % O.O.*.>.v , # > 1 4 4 1 > > > m A A n q % X 9 f ;.w.f - + &           ",
"          i - f 2.x.x.;.b $ > @.@.@.@.} 6 % , , 3 , , : : 7 b } } 1.n 6 O s w.x.x.u.s % O           ",
"          - e u.cXSXbXkXr.5 v 1.`.,.| |  .q , > @ @ % 6 a  .| | o.2.<.v 0 i.gXcXNXnXp.- +           ",
"          d t m.DXFXvXkXoXh k /.OX:.} | | } 0 > > # $ q +.| | | o.).:.c 5 d.lXcXJXNXN.t e           ",
"          sXf.f.s.u.9.%.t 1 g /.).!.!.X.1._._ A A n A } 1.<.:.X.W.).' z > u $.9.w.m.s.g.f.          ",
"              6.e O X X X o > <.XX(.).|.(.(.(.}.OXOX}.~.(.OXOX[.~.).' 1 @ o o X X i 7.              ",
"                6.e * X + % 1 L ' { !.K.J.P.E.{.}.}.].R.R.I.I.K.Z.' n 5 & O . * 9 $.                ",
"                    6.= 8 e 8 $ # z ) ' L.OX}.P.].}.E.~.I.XX' ) < > # 0 e : + 8.                    ",
"                    8.i r r - : % 0 n ' /./.).!.!.!.!._.)./.>.I 1 , $ 8 e - - p.                    ",
"                        w.p ; ; 9 s +.&.,.@.b 7 1 7 7 b @.*.*.@.b 8 : % :                           ",
"                        N.f ; ; s s +.+.&.+.q * % * % 9 O.%.+.%.s t 9 8 e                           ",
"                          m.7.r 8 8 9 r q 9 $.r.y.y.y.%.s p 9 ; ; ; t 7.p.                          ",
"                              d O O X O O *             e + + + + % 7.                              ",
"                              8.e 8 3 3 - u             y - - - r e q.                              "
};
