/* XPM */
static char *_64e510e610a46f6d89fbbbdfe39d9d2D1bMp6cG249mlR26[] = {
/* columns rows colors chars-per-pixel */
"50 50 251 2 ",
"   c None",
".  c #0B0D04",
"X  c #060804",
"o  c #160B07",
"O  c #031303",
"+  c #081907",
"@  c #18170A",
"#  c #171714",
"$  c #0D1C17",
"%  c #28170C",
"&  c #291914",
"*  c #321B15",
"=  c #072506",
"-  c #16260B",
";  c #08360B",
":  c #0B2A13",
">  c #192716",
",  c #0B3815",
"<  c #173917",
"1  c #133E08",
"2  c #2A2A06",
"3  c #282818",
"4  c #382718",
"5  c #28361A",
"6  c #32391B",
"7  c #333007",
"8  c #0E2B27",
"9  c #272727",
"0  c #372928",
"q  c #283827",
"w  c #373827",
"e  c #373736",
"r  c #352E32",
"t  c #211826",
"y  c #4B3215",
"u  c #452C23",
"i  c #483728",
"p  c #54392B",
"a  c #483937",
"s  c #583D35",
"d  c #663B2A",
"f  c #69361C",
"g  c #0A4A09",
"h  c #15480A",
"j  c #0A5509",
"k  c #18540C",
"l  c #0B4816",
"z  c #164618",
"x  c #095716",
"c  c #17561A",
"v  c #3A421A",
"b  c #285514",
"n  c #0D6617",
"m  c #16661C",
"M  c #0E7318",
"N  c #287318",
"B  c #326D17",
"V  c #184924",
"C  c #095D23",
"Z  c #1B5924",
"A  c #0E4E22",
"S  c #274828",
"D  c #354627",
"F  c #235928",
"G  c #385629",
"H  c #2B5B35",
"J  c #355537",
"K  c #374935",
"L  c #166826",
"P  c #0A7B28",
"I  c #177627",
"U  c #157833",
"Y  c #116E2C",
"T  c #246C2C",
"R  c #276727",
"E  c #35692A",
"W  c #257628",
"Q  c #337225",
"!  c #266C35",
"~  c #376838",
"^  c #35723C",
"/  c #49541A",
"(  c #7C531C",
")  c #6F4F14",
"_  c #4D7116",
"`  c #787B14",
"'  c #7E6B19",
"]  c #545925",
"[  c #584536",
"{  c #465535",
"}  c #4B4D31",
"|  c #6C4E2F",
" . c #487537",
".. c #4D6B2C",
"X. c #726D30",
"o. c #463E43",
"O. c #2E5A61",
"+. c #454A45",
"@. c #4B564A",
"#. c #58595A",
"$. c #4F534F",
"%. c #675B57",
"&. c #6E544B",
"*. c #5A6B5B",
"=. c #4E714E",
"-. c #756855",
";. c #6F6C52",
":. c #595165",
">. c #516D6E",
",. c #696568",
"<. c #727470",
"1. c #8A7417",
"2. c #895E38",
"3. c #8E6E30",
"4. c #A87B36",
"5. c #A07D1D",
"6. c #817554",
"7. c #927054",
"8. c #A3784C",
"9. c #887A6C",
"0. c #966C59",
"q. c #0E841C",
"w. c #39A91B",
"e. c #128628",
"r. c #29872A",
"t. c #34992B",
"y. c #369B37",
"u. c #348E30",
"i. c #39A628",
"p. c #36A332",
"a. c #3E811C",
"s. c #47831D",
"d. c #6D8A14",
"f. c #47A01C",
"g. c #469A2A",
"h. c #459635",
"j. c #50902E",
"k. c #65992B",
"l. c #42A428",
"z. c #46A233",
"x. c #5DA037",
"c. c #6FA42F",
"v. c #3F9242",
"b. c #4E8F4F",
"n. c #6A874B",
"m. c #5DA148",
"M. c #5A9063",
"N. c #6C9070",
"B. c #69A262",
"V. c #AB8B17",
"C. c #AE9118",
"Z. c #BBA41A",
"A. c #918F2B",
"S. c #A98729",
"D. c #B5882C",
"F. c #AB9528",
"G. c #BD9327",
"H. c #B78B36",
"J. c #A99836",
"K. c #B28E34",
"L. c #8FAF32",
"P. c #BBA736",
"I. c #B5A729",
"U. c #979C13",
"Y. c #C4AD1C",
"T. c #C79D28",
"R. c #C8BA26",
"E. c #C8A33A",
"W. c #D8B738",
"Q. c #D3B32C",
"!. c #EAB53F",
"~. c #8FC32D",
"^. c #ACC637",
"/. c #D7C737",
"(. c #D0CD31",
"). c #EADC37",
"_. c #E9CE33",
"`. c #D5ED30",
"'. c #EAE738",
"]. c #F8E539",
"[. c #E9E42E",
"{. c #8D844D",
"}. c #A7954A",
"|. c #BA9544",
" X c #AB9253",
".X c #93B948",
"XX c #B4B452",
"oX c #92886D",
"OX c #AD926E",
"+X c #95AF73",
"@X c #B6AA70",
"#X c #C79B4E",
"$X c #D5BA48",
"%X c #CAB04E",
"&X c #CBB173",
"*X c #D5AF6F",
"=X c #AACD5E",
"-X c #D6C444",
";X c #D8C253",
":X c #D9CD46",
">X c #E9D745",
",X c #F2DA45",
"<X c #E6CF57",
"1X c #F6E347",
"2X c #EDEB4E",
"3X c #D2C971",
"4X c #ECD07D",
"5X c #F3E76E",
"6X c #2F6A8C",
"7X c #5D7793",
"8X c #667090",
"9X c #546898",
"0X c #789482",
"qX c #78ADA4",
"wX c #53A7C1",
"eX c #898786",
"rX c #91958E",
"tX c #B09D87",
"yX c #93B196",
"uX c #BBB688",
"iX c #ACAC8E",
"pX c #9BACA1",
"aX c #B7B6BA",
"sX c #AAABAB",
"dX c #D3AD8B",
"fX c #CFB18D",
"gX c #E3BE98",
"hX c #CEBCA5",
"jX c #E4B9AD",
"kX c #93C392",
"lX c #A5D197",
"zX c #AFCAB0",
"xX c #D8C599",
"cX c #CEC48B",
"vX c #F1EA94",
"bX c #D7C6A8",
"nX c #D0CCAE",
"mX c #E9D6A8",
"MX c #F5DAB7",
"NX c #E9CFAF",
"BX c #F9E8BA",
"VX c #F0E7AF",
"CX c #B0C7D5",
"ZX c #CFD1CF",
"AX c #EADBCB",
"SX c #C7E4D3",
"DX c #F6E8C3",
"FX c #F7E9D5",
"GX c #FDFBCC",
"HX c #F3F2F0",
"JX c #DFEAEB",
/* pixels */
"                      bXjXhXiXiXiXyXkXyXyXrXkXzXlXlXlXlXlXlXlXlXyX                                  ",
"                      @X}.3.` X... .^ ^ J @.=.m.m.x.x.m.m.m.m.b.b.N.                                ",
"                    4X%XI.U.U.d.d._ Q F 5 z E h.t.f.f.f.g.g.h.u.u.b.kX                              ",
"          uX X}.*X;X;X>X>X).(.(.~.c.j.E h h W t.p.l.f.w.i.i.l.y.y.u.y.b.b.M.M.pX                    ",
"          XXI.J.#X$XW.!.,X).2X>X(.L.c._ b b N u.t.i.i.w.w.w.w.i.p.p.r.e.W T ^ N.                    ",
"      OX@X;X:X-XE.H.G.T.G.E.W./.-XL..Xn.j.a.N n n e.p.i.w.w.w.i.i.p.p.y.r.W U ^ ~ M.0X              ",
"    @X XJ.-X1X:X#X4.D.S.5.H.%X$X-XXX=XL.k.f.N j j I p.p.l.i.i.i.i.p.p.p.y.U I m z H *.              ",
"  &X%X-XW.R.Y.E.#X#X|.D.5.P.;X<X-XI.J.c.k.f.B j j W m.z.z.z.z.z.p.p.e.r.e.e.I L Z T =.M.N.          ",
"{.J.^.].].Y.V.4.#X*XE.C.V.Z.).,X/.C.S.c.k.g.B j k N y.j.h.j.h.z.i.t.e.q.q.q.P I W R F F H           ",
"3.1.Z.].].Q.T.T.8.4.K.G.P.$X,X]._.C.S.}.^.~.k._ N N N N Q Q Q W I M q.q.q.q.P U W T F z z           ",
"| ' P.1X,X_.!.E.2.( 2. X3X<X2X1X_.D.S.P.`.`.~.c.g.N j g h h h g j j M P e.e.U U I T m z z           ",
"OXOX%X-XE.T.T.8.8.8.8.&X&X*X$X:XQ.D.S.I.[.`.~.k.s.N g g l c k k x n P e.P P U P I I L x A b.0X      ",
"    @XJ.S.1.( 2. XdXdXdXdX#X|.F.V.1.V.Z.'.2X~._ B k g x Z ! E R L I I U U U I I I I I M Y U H J     ",
"        7.| p | 8.dXgXdXgXfX|.}.J.C.Z.(.(./.A.d...b x A C Y T T L I I L Y L L I I I I P P n < 8     ",
"          %.0 a 0.dXgXNXMXmXfX@X;X>X[.R.Z.D.A.{.k. .T Y C x x L I L x l l l l m I M q.P I C l 8     ",
"          #.t u 0.dXdXgXxXcXcX3X4X2X].R.C.S.3.{.;. .L Y C x j m L n x l g ; 1 c m I M I U C < :     ",
"          :.t * d 2.X.[ [ 6.@XmX5X2X]._.D.8.3.) ] b h c C L m j j l l l ; = + ; g j n L T l : +     ",
"          %.t * o.s a 3 % =.uXvXvX5X,XW.T.8.3.) / / b c G Q Q b k g g < : + O = ; g x L F , O X     ",
"    eX<.,.6.6.%.:.:.*.eXrXiXmXvX4X$XQ.E.#X|.1.) ) X.6.oX+X+X+X+X+Xm.G q > . O = ; g l A A : + O     ",
"    o.0 * 6.uXrX9X9X7XCXJXHXFXBX*X#X4.T.%X%X5.) (  XdXjXNXVXVXVXnXiX .5 > - $ : : , , , 8 : O X     ",
"    s 0 & 6.&XpX9X9X9XCXHXHXFXBX4X8.1.4.!.$X1./ | 0.jXNXMXBXMXxXfXoX{ - w *.<.@.< ; , A V : O X     ",
"    o.0 * 9.uXsX8X9X8XCXHXHXFXMXdX2.2.V.>X>X` 2 i eXZXDXAXDXbXdXoX&.6 @ @.aXCX<.S = , F H < + X     ",
"      o.r -.9.eX,.8XrXZXFXFXDXMXdX2.2.V.).'.` 2 9 7XCXSXnXnXtX0.&.} > . #.aX  N.e = ; V V , + X     ",
"          %.0 o.0.dXjXAXGXBXBXBXdX2.2.5.[.[.` 2 8 6XwXqXN.rX;.i * @ X X $.aX  oXe O + < < : X X     ",
"          eX#.&.7.OXtXNXNXmXVXmXOX2.) V.[.[.` 2 8 O.6X>.=.*.{ / 7 7 / 6 -.nX    %.@.D - < q +.@.    ",
"              oX-.p [ tXjXbXbXfXOX2.1.S._._.1.7 + $ 8 8 8 > y -.}.|.P.R.3XVX        @.q # @.        ",
"                -.o.+.oXtXtX@X@X{.( ) 5._._.1.2 X O = $ + O 5 X.}.%X<X5XVXGX          $.e           ",
"                      #.{ {  .../ 4 2 ( $X;X] % + , A A , = < 6 ] n.3XvXBX                          ",
"                      K > = 1 h ; + + ] }.XX} @ = z F Z c h : + - { uXDXGX                          ",
"              CXrX=.J S V z c Z z S S q } { D w 5 5 < h c F z = $ +.                                ",
"              iX<.5 : Z T ! ! U ! ~ G < = @ 5 w i 4 @ = z R z : $ +.                                ",
"          sXeX6.X.X. .E Y U U ! Z c z z 1 , S K } 4 o = V ~ S : 8 $.                                ",
"          <.e / A.=X=Xg.I I I T x ; = g c m Z E G 3 @ + q H S > > +.                                ",
"          #.t v d.L..X_ B B E ~ z = = Z b.M.B.N.*.K - + q K D - 3 +.                                ",
"          #.9 - _ _ _ _ / / } { w @ $ *.zXSXZXZXaX,.9 # 3 q 6 5 3 6 r r e                           ",
"          *.# = k B _ _ _ ] ] { w # o #.aXJXJXZXaX,.t # > 3 6 6 6 5 @ o o                           ",
"          $.# : L h.h.j.j.s.j.=.G - o 0 s 0.&.&.$.q @ + - - v G ] v # + o                           ",
"          ,.e S ~ h.u.l.l.i.l.h.R - . % u f y p 3 $ O + 1 5 v } G D q 9 q                           ",
"          sXrX<.@.F c a.l.w.t.a.c + o * u f f d y % O = G  ...z < G *.0X                            ",
"              pX<.q q  .h.u.Q R z O o * d d | | p * o - { =.=.S S @.                                ",
"                rX>.#.@.K S q < - O . } 7.OXoX9.7.p % # 9 K +.$.@.<.                                ",
"                      } 8 . . . . X @ ;.zXAXhXhXOX&.& o # # #                                       ",
"                  ,.$.a 3 @ @ @ % % & [ 6.oX9.9.%.p % # $.e                                         ",
"                  a u i a u u 4 6 4 4 * 4 % # & & o o #                                             ",
"                  % % u [ s p p u u u % o X X X # r o.                                              ",
"                  * % u [ | [ s s u * * o o X X 9 +.                                                ",
"                  [ i a i p p p i u * 0 0 0 e e :.<.                                                ",
"                      a * & % % * * * &.eX                                                          ",
"                      +.& o o o o o * a                                                             ",
"                                                                                                    "
};
