/* XPM */
static char *result[] = {
/* columns rows colors chars-per-pixel */
"50 50 251 2 ",
"   c #020C02",
".  c #0B0A03",
"X  c #070603",
"o  c #160A06",
"O  c #041B04",
"+  c #081807",
"@  c #181508",
"#  c #081718",
"$  c #171814",
"%  c #090C13",
"&  c #261A17",
"*  c #2B1B0D",
"=  c #0D230B",
"-  c #062908",
";  c #15290A",
":  c #06370B",
">  c #13370B",
",  c #0B2615",
"<  c #152815",
"1  c #0A3914",
"2  c #183518",
"3  c #2A270B",
"4  c #2A2519",
"5  c #362618",
"6  c #233416",
"7  c #383719",
"8  c #312F0D",
"9  c #221A25",
"0  c #193924",
"q  c #122C2A",
"w  c #262826",
"e  c #362924",
"r  c #233527",
"t  c #383528",
"y  c #372C34",
"u  c #37373A",
"i  c #47271D",
"p  c #483A13",
"a  c #462A26",
"s  c #473726",
"d  c #583628",
"f  c #583A33",
"g  c #493431",
"h  c #673B38",
"j  c #064907",
"k  c #085907",
"l  c #0A4815",
"z  c #16481A",
"x  c #095719",
"c  c #175916",
"v  c #16550B",
"b  c #264818",
"n  c #26591C",
"m  c #384C14",
"M  c #15670B",
"N  c #0C6416",
"B  c #1A6718",
"V  c #167619",
"C  c #0E6F10",
"Z  c #286819",
"A  c #306E13",
"S  c #1C4924",
"D  c #195825",
"F  c #0E512B",
"G  c #274825",
"H  c #255928",
"J  c #395B28",
"K  c #384839",
"L  c #295837",
"P  c #32492F",
"I  c #126D24",
"U  c #186729",
"Y  c #0D7B26",
"T  c #14742A",
"R  c #1B732D",
"E  c #137828",
"W  c #177635",
"Q  c #0F682C",
"!  c #276B26",
"~  c #396627",
"^  c #277629",
"/  c #397525",
"(  c #286634",
")  c #376639",
"_  c #2D7536",
"`  c #46561C",
"'  c #575619",
"]  c #4D4C0F",
"[  c #684817",
"{  c #724E17",
"}  c #4B6C14",
"|  c #5C5526",
" . c #45463D",
".. c #574737",
"X. c #575936",
"o. c #48542E",
"O. c #674639",
"+. c #6F522E",
"@. c #46692A",
"#. c #566338",
"$. c #537432",
"%. c #676D34",
"&. c #716E0F",
"*. c #1B3A4B",
"=. c #4E3E45",
"-. c #38524A",
";. c #2E6943",
":. c #197042",
">. c #4C4244",
",. c #574B46",
"<. c #485947",
"1. c #525153",
"2. c #6B594E",
"3. c #597654",
"4. c #4F6C51",
"5. c #716C4F",
"6. c #525973",
"7. c #59747A",
"8. c #6B756B",
"9. c #787668",
"0. c #6F6D6C",
"q. c #865C1D",
"w. c #8B6916",
"e. c #897214",
"r. c #98793B",
"t. c #8E6A32",
"y. c #A97B2F",
"u. c #A87E1E",
"i. c #8C5F56",
"p. c #92704D",
"a. c #A37C50",
"s. c #8B7365",
"d. c #A27C62",
"f. c #33981B",
"g. c #398A15",
"h. c #0E8823",
"j. c #378927",
"k. c #3C9B2D",
"l. c #348435",
"z. c #3B9635",
"x. c #2A8C2A",
"c. c #3DA529",
"v. c #3CA333",
"b. c #21961A",
"n. c #52911A",
"m. c #728F17",
"M. c #469C2B",
"N. c #45993B",
"B. c #569438",
"V. c #4E8731",
"C. c #70952D",
"Z. c #46A22B",
"A. c #44A234",
"S. c #61A326",
"D. c #469A46",
"F. c #508A4D",
"G. c #778C4D",
"H. c #7BB258",
"J. c #558862",
"K. c #7A876D",
"L. c #6FB864",
"P. c #59AA61",
"I. c #6EC457",
"U. c #75C162",
"Y. c #998716",
"T. c #9A9217",
"R. c #AE8F15",
"E. c #BAA919",
"W. c #B7B314",
"Q. c #A2A517",
"!. c #93872C",
"~. c #A88626",
"^. c #A68836",
"/. c #B0962E",
"(. c #86AD28",
"). c #B7AD2D",
"_. c #C2AE16",
"`. c #C69D32",
"'. c #C1AA2A",
"]. c #D5B836",
"[. c #CBB333",
"{. c #BACE32",
"}. c #E7D41C",
"|. c #D8C827",
" X c #D0CD33",
".X c #E7D739",
"XX c #E8D132",
"oX c #F5E939",
"OX c #F0E82E",
"+X c #D4C11E",
"@X c #8F8B4F",
"#X c #B98949",
"$X c #AE904F",
"%X c #92B654",
"&X c #B5AE4D",
"*X c #83846A",
"=X c #89877D",
"-X c #998D70",
";X c #AD956C",
":X c #97A37E",
">X c #B9A779",
",X c #AEAA71",
"<X c #C59945",
"1X c #D19C4D",
"2X c #D0B14D",
"3X c #C89C6A",
"4X c #CEB070",
"5X c #A9CD5C",
"6X c #B5CE6C",
"7X c #D8C64D",
"8X c #EBD747",
"9X c #EAD152",
"0X c #F6EA45",
"qX c #EFE949",
"wX c #E5CC69",
"eX c #E1D374",
"rX c #F5E873",
"tX c #CDC468",
"yX c #367189",
"uX c #767687",
"iX c #4F5B81",
"pX c #799398",
"aX c #5C91A9",
"sX c #878A86",
"dX c #8F9391",
"fX c #A59287",
"gX c #B4AC8A",
"hX c #B7B2A9",
"jX c #98A2A8",
"kX c #D7BA87",
"lX c #CEB490",
"zX c #D6BBA4",
"xX c #CBBBA8",
"cX c #B9C490",
"vX c #B7C9AE",
"bX c #D9CB96",
"nX c #E7CA8E",
"mX c #F9ED92",
"MX c #D1CDAE",
"NX c #EBD7A5",
"BX c #F1D2AE",
"VX c #F8E6B8",
"CX c #F8EDAE",
"ZX c #ACB2C4",
"AX c #AAD6C6",
"SX c #CBCBC9",
"DX c #F0DCC6",
"FX c #F5EBCE",
"GX c #D4EBEE",
"HX c #F0F0EC",
"JX c None",
/* pixels */
"JXJXJXJXJXJXJXJXJXJXJXJXJXJXJXP.P.P.L.L.U.I.I.H.%XH.F.V.F.D.P.K.K.G.-X;X>XbXJXJXJXJXJXJXJXJXJXJXJXJX",
"JXJXJXJXJXJXJXJXJXJXJXJXJXJXJXl.V j.N.D.M.k.M.M.N.V.n : j N n ` ' ] &.e./.4XVXJXJXJXJXJXJXJXJXJXJXJX",
"JXJXJXJXJXJXJXJXJXJXJXJXJXJXJXz.x.v.A.v.c.A.Z.c.N.j.B v x x.V.m.Q.Q.W._. X7XnXNXbXMXzXJXJXJXJXJXJXJX",
"JXJXJXJXJXJXJXJXJXJ.;.( ! ^ j.k.c.Z.v.c.Z.Z.Z.Z.A.j.B j c l.C.Q.qX0XoX0XqX9X2X4X$X!.$XbXJXJXJXJXJXJX",
"JXJXJXJXJXJXJXJXJ.F.( W ^ j.f.n.M.Z.Z.c.Z.Z.n.f.g.^ Z n / B.(.).XX8XXXXX8X].1X1X).E.[.tXJXJXJXJXJXJX",
"JXJXJXJXJXJX;.H U U W x.k.M.Z.Z.Z.A.A.c.c.c.f.M k B l.F.G.%X5X[.].].'.R.u.u.y.y.].8X.X&X@X,XJXJXJXJX",
"JXJXJXJXJXJX( D x T h.h.b.b.k.Z.A.A.v.c.f.c.f.M j k l.B.C.%X).2X7X7X`.y.u.y.#X#X].XXXX_./.;X4XJXJXJX",
"JXJXJXJX3.;.( U T E E h.h.b.f.k.N.N.N.v.Z.c.f.b.j c j.S.C.T.T.).9X0X].~.y.<X3X1X`.R._.+X8XwX&X$XJXJX",
"JXJXJXJXS l Q R T E Y h.Y h.g.z.N.N.N.k.k.k.j.Z k M n.S.(.Y.Y.E.oXoX|.E.^.;X3X3X<Xy.R.}.oX8X/.r.a.JX",
"JXJXJXJXD F U T E Y Y Y E T B B B B B M V B Z / A m.(.{.{.R.Y.W.oX0X X2X3X;Xp.p.a.`.+X}.OX.X~.w.p.JX",
"JXJXJXJXD x Q T E Y Y Y x.T x j : j j j j : z _ B.(. X0X8X/.R.E.8X0X9XwX4Xd.+.{ a.1X2XXXoXXX!.+.+.JX",
"JXJXJX( D Q I T T E Y T W R I N x N C N j l z _ } S.{.OXXX/.Y.R.].2X2XkXkX;Xd.a.a.y.^.).[.2X$Xt.JXJX",
"3.L S ( R U T T T T T T T E E T W W R U k j v c A n.{.OX XE.Y.u.y.r.#X4XkXkXkX4Xp.{ { t.r.;XJXJXJXJX",
"3.G l U R R I T E I I I N N Y W W W U B c M M ~ ` C.). X]._.'.#X`.<X4XkXkXkXbX4Xt.d h d.JXJXJXJXJXJX",
"3.H l c R U I T I N x j j k k Y :.Q l l M M A V.G.!.!.T.W.}.8XwX4X4XnXBXVXNXlXlXh & g -XJXJXJXJXJXJX",
"4.S j D R R I U D 1 1 : l x x N Q D l x U Z Z 3.G.p.p.u._.}.oXrXwXnXkXlXzXlX3X;Xh o =.dXJXJXJXJXJXJX",
"<.< : x R T x l 1 - + - 1 z l l z c H ! D c b ] ' +.t.y.`.}.oXrXmXNX-XO.f O.2.+.5 o y dXJXJXJXJXJXJX",
">., - j U Q x l -     - > S S G b J #.~ n n m ] [ { y.y.`.XX9XrXmXCX@Xa & e ,...5 $ g dXSXJXJXJXJXJX",
"K < - : l j l l :     O ; G 3.:X:XgXcXgX,X@X@X&.[ q.^.1X1X`.`.2XmXVXMXxXjXuX6.1.0.s.9.2.2.0.JXJXJXJX",
"K < O - j l : 1 2 < $ ; ; G K.MXMXCXCXCXbXcXgX5.[ q.`.1X1X^.^.3XCXFXFXHXGXhX6.6.=XhXgX,.e >.JXJXJXJX",
">.< O 1 z z : : P 8.8.o.6 2 3.gXbXbXCXVXNXMXhX<.* [ `.7X2Xa.t.$XBXVXFXHXGXZXiX6.sXvXgX..4 g JXJXJXJX",
" .< = z L S : O # JXJX9.t $ g s.$XtXNXDXFXFXMX1.o ] E..X[.q.{ a.BXDXFXHXGXZXiX6.pXgX:X..4 >.JXJXJXJX",
" .$ + r L S -     JXJXK.t $ e 2.2.;XlXMXAXGXZX-.% ] W.OX].w.{ p.BXBXDXHXHXZXuXuX9.=X*X5.1.9.JXJXJXJX",
" .$ + 2 0 2 +     JXJX*Xt o X o * X.9.K.pXaXaX-.+ 8 W.OX+Xw.{ a.BXBXDXDXDXSXSXhX1.4  .sXJXJXJXJXJXJX",
"2.y w r 0 2 r w JXJXJX,X' 7 3 3 8 o.5.8.aXyXyX*.% m W.}.|.e.{ d.zXBXBXVXDXzXgXfX2.g 1.dXJXJXJXJXJXJX",
"JXJXJXJXr K dXJXJXJXJXrX7X].&X&X$X' 3 - - q q #   m W.OX].w.[ p.lXlXnXbXlXi.p s sXZXJXJXJXJXJXJXJXJX",
"JXJXdX8.K <.JXJXJXJXJXmXrXrXrX4X,X| @ + - O     X ] E.8X].q.[ 5.>XgX>XgX;X5.o.7 JXJXJXJXJXJXJXJXJXJX",
"JXJXSXhXJXJXJXJXJXJXJXFXCXCX:XX.` 6 < < q F F # X 8 /.7X$X[ 8 7 X.#.#.X.,.5.s.=XJXJXJXJXJXJXJXJXJXJX",
"JXJXJXJXJXJXJXJXJXJXJXJXJXJXJX4 + ; 2 r L ;.-., . 8 !.4Xp.7 + O - > ; - G o.JXJXJXJXJXJXJXJXJXJXJXJX",
"JXJXJXJXJXJXJXJXJXJXJXJXJXJXJXr   2 b b z G 2 2 3 7 | %.#.t 2 > S H z l F L JXJXJXJXJXJXJXJXJXJXJXJX",
"JXJXJXJXJXJXJXJXJXJXJXJXJXJXJXw # 0 H n 1 O O 7 o.p 3 @ < P L ( :.:.( R U S , # JXJXJXJXJXJXJXJXJXJX",
"JXJXJXJXJXJXJXJXJXJXJXJXJXJXJXq # q ;.( 1 O + 7 ` ] 6 1 : F F Q W W Y V V A ` o.JXJXJXJXJXJXJXJXJXJX",
"JXJXJXJXJXJXJXJXJXJXJXJXJXJXJXr # 0 ;.L l O O 6 J ) ~ H z 1 - l U ^ ^ Z g.C.5X6X%.t w JXJXJXJXJXJXJX",
"JXJXJXJXJXJXJXJXJXJXJXJXJXJX-.G > z L H 1 - - ;.4.J.J.J.) 2   - n ~ A A n.C.5X6X$.@ X JXJXJXJXJXJXJX",
"JXJXJXJXJXJXJXJXJXJXJXJX4.4.-.L G n @.~ > + 2 pXAXAXAXvXsXK @ ; m ' ' ] ] } n.V.b   X JXJXJXJXJXJXJX",
"JXJXJXJXJXJXJXJXJXJXJXJX# , 0 K ~ ` ` m 3 + q jXGXGXGXGXjX=.@ * ..| | ' ' } A A > +   JXJXJXJXJXJXJX",
"JXJXJXJXJXJXJXJXJXJXJXJXq # 2 ) / @.$.@.b O q 6.pXpXpXdX6.t + < #.%.%.%.n.V.j.j.z O   JXJXJXJXJXJXJX",
"JXJXJXJXJXJXJXJXJXJXJXJXr q z ( ^ / B.V.b O # u -.-.1.>.r # + z V.F.B.F.B.B.B.N.n < < JXJXJXJXJXJXJX",
"JXJXJXJXJXJXJXJXJXJXJXJXJXJX0 S v ! F.$.b + @ g =.1.=.=.t $ - 1 ^ l.z.D.N./ ! c z JXJXJXJXJXJXJXJXJX",
"JXJXJXJXJXJXJXJXJXJXJXJXJXJXJXr - ~ F.F.m + o g h h h =.t $ O : D U l.D.N.Z > ; JXJXJXJXJXJXJXJXJXJX",
"JXJXJXJXJXJXJXJXJXJXJXJXJXJXJX8.4.o.4.J 2 + @ O.i.i.i.s.2.4   @ z G H ! ) ) JXJXJXJXJXJXJXJXJXJXJXJX",
"JXJXJXJXJXJXJXJXJXJXJXJXJXJXJXJXJX<.2 ; O   @ s.lXlXzXzX-X .o X @ + O ; G <.JXJXJXJXJXJXJXJXJXJXJXJX",
"JXJXJXJXJXJXJXJXJXJXJXJXJXJXJXJXJX8.K r < + $ 0.fXgXxXxX=Xf @ o . X . + 7 X.JXJXJXJXJXJXJXJXJXJXJXJX",
"JXJXJXJXJXJXJXJXJXJXJXJXJXJXJXJXJXJXJXJX .@ o & 9 5 t s t 5 5 i 5 5 5 7 ] s & 9 JXJXJXJXJXJXJXJXJXJX",
"JXJXJXJXJXJXJXJXJXJXJXJXJXJXJXJXJXJXJXJXJXy 9 o o X X X o * e a i i d d i 5 $ # JXJXJXJXJXJXJXJXJXJX",
"JXJXJXJXJXJXJXJXJXJXJXJXJXJXJXJXJXJXJXJXJXJXJX9 o X . o o 5 a a d d h h h e # # JXJXJXJXJXJXJXJXJXJX",
"JXJXJXJXJXJXJXJXJXJXJXJXJXJXJXJXJXJXJXJXJXJXJXu 9 $ $ & & & i d d h +.h f a & & JXJXJXJXJXJXJXJXJXJX",
"JXJXJXJXJXJXJXJXJXJXJXJXJXJXJXJXJXJXJXJXJXJXJXsXJXJXJXJXJXe 5 * i i i i f =.2.JXJXJXJXJXJXJXJXJXJXJX",
"JXJXJXJXJXJXJXJXJXJXJXJXJXJXJXJXJXJXJXJXJXJXJXJXJXJXJXJXJXw & o o o o o e ,.JXJXJXJXJXJXJXJXJXJXJXJX",
"JXJXJXJXJXJXJXJXJXJXJXJXJXJXJXJXJXJXJXJXJXJXJXJXJXJXJXJXJX>.u e e e e e ,.9.JXJXJXJXJXJXJXJXJXJXJXJX"
};
