/* XPM */
static char *_d491bcb96e64a1283ed62fb74adb4feFAA4p2eWwy9LaBRg[] = {
/* columns rows colors chars-per-pixel */
"50 50 256 2 ",
"   c None",
".  c #020C02",
"X  c #070806",
"o  c #140C05",
"O  c #180B08",
"+  c #061705",
"@  c #1B130D",
"#  c #161809",
"$  c #1C1215",
"%  c #261609",
"&  c #281918",
"*  c #2E150D",
"=  c #072606",
"-  c #1B271A",
";  c #153A17",
":  c #102F0B",
">  c #27241A",
",  c #38271B",
"<  c #293A17",
"1  c #32320D",
"2  c #291B24",
"3  c #1A2C28",
"4  c #2A2726",
"5  c #352825",
"6  c #27382C",
"7  c #353526",
"8  c #3C3634",
"9  c #2E2935",
"0  c #151B31",
"q  c #4A351A",
"w  c #4D2D16",
"e  c #432925",
"r  c #473528",
"t  c #55392B",
"y  c #4A3B36",
"u  c #573D36",
"i  c #432834",
"p  c #643A1C",
"a  c #17491A",
"s  c #114E12",
"d  c #384A17",
"f  c #28591A",
"g  c #345016",
"h  c #18761B",
"j  c #1B6F0D",
"k  c #38661A",
"l  c #257618",
"z  c #2F7313",
"x  c #195123",
"c  c #28492A",
"v  c #265B25",
"b  c #395527",
"n  c #354939",
"m  c #2C4D34",
"M  c #0C7D25",
"N  c #137C23",
"B  c #187826",
"V  c #1D6E2F",
"C  c #256A26",
"Z  c #366526",
"A  c #247729",
"S  c #267934",
"D  c #316F31",
"F  c #594C1B",
"G  c #4B5318",
"H  c #6E4D12",
"J  c #4E6A11",
"K  c #574526",
"L  c #475926",
"P  c #565424",
"I  c #484439",
"U  c #5A4338",
"Y  c #455734",
"T  c #474A28",
"R  c #67482B",
"E  c #735726",
"W  c #774A38",
"Q  c #795A3C",
"!  c #6C4E2E",
"~  c #487B36",
"^  c #507032",
"/  c #687034",
"(  c #71650D",
")  c #343145",
"_  c #463D4B",
"`  c #39504C",
"'  c #3D6541",
"]  c #4A4549",
"[  c #574C47",
"{  c #545051",
"}  c #635A59",
"|  c #6D5349",
" . c #536C55",
".. c #676459",
"X. c #78694E",
"o. c #4F4D6C",
"O. c #685B67",
"+. c #664C64",
"@. c #52796E",
"#. c #696666",
"$. c #666779",
"%. c #73756F",
"&. c #835115",
"*. c #886419",
"=. c #917419",
"-. c #865B2C",
";. c #876938",
":. c #9B783A",
">. c #937330",
",. c #A77B31",
"<. c #865D58",
"1. c #8C6C43",
"2. c #917351",
"3. c #8B736F",
"4. c #A36F61",
"5. c #1E8D26",
"6. c #238D2A",
"7. c #27882C",
"8. c #269427",
"9. c #2A8933",
"0. c #358A37",
"q. c #349735",
"w. c #36932D",
"e. c #34A52C",
"r. c #37A536",
"t. c #2DA229",
"y. c #148B1E",
"u. c #49890A",
"i. c #659D0E",
"p. c #6FA60F",
"a. c #578733",
"s. c #4A8F35",
"d. c #719031",
"f. c #45A336",
"g. c #3B9243",
"h. c #499A46",
"j. c #4A8559",
"k. c #4C8E50",
"l. c #6D884B",
"z. c #528663",
"x. c #728A6F",
"c. c #6AA64F",
"v. c #968517",
"b. c #AD9510",
"n. c #8BB412",
"m. c #B7A619",
"M. c #B2A50D",
"N. c #968629",
"B. c #9A8634",
"V. c #8B8930",
"C. c #A6862A",
"Z. c #B99C2B",
"A. c #A88537",
"S. c #B79436",
"D. c #AF8E2F",
"F. c #84A72C",
"G. c #98BA3B",
"H. c #B9AD2C",
"J. c #CBB116",
"K. c #CBB626",
"L. c #C7A83A",
"P. c #C9BC35",
"I. c #D2B330",
"U. c #C09E3E",
"Y. c #BEED38",
"T. c #D3C219",
"R. c #E5CF1D",
"E. c #F5EC1D",
"W. c #D9C523",
"Q. c #D7D234",
"!. c #E3CB2A",
"~. c #EBD727",
"^. c #E9D435",
"/. c #EAD235",
"(. c #E7E728",
"). c #F8EC29",
"_. c #F7E638",
"`. c #F3EE32",
"'. c #918850",
"]. c #AA8547",
"[. c #A78658",
"{. c #B2934F",
"}. c #8F926F",
"|. c #B79868",
" X c #AC9879",
".X c #BA9A79",
"XX c #A98C70",
"oX c #86A464",
"OX c #B5A573",
"+X c #BEA950",
"@X c #C5974F",
"#X c #C5A859",
"$X c #D7B754",
"%X c #CFB348",
"&X c #C5996F",
"*X c #C5A777",
"=X c #C8A96A",
"-X c #E8A657",
";X c #B1E64C",
":X c #B0E15F",
">X c #D6CA4D",
",X c #E6C847",
"<X c #EDDA47",
"1X c #F6DB48",
"2X c #D0EC4A",
"3X c #F7EB44",
"4X c #DADE71",
"5X c #3E7D88",
"6X c #727291",
"7X c #8A7B89",
"8X c #798A88",
"9X c #6BAFA5",
"0X c #5EB5C5",
"qX c #928C8D",
"wX c #B09B8C",
"eX c #98A796",
"rX c #94B693",
"tX c #B3A98F",
"yX c #8695A6",
"uX c #92AFAA",
"iX c #B2AAA8",
"pX c #AEB0B3",
"aX c #CAA886",
"sX c #CBB588",
"dX c #D8B98C",
"fX c #C5AB98",
"gX c #D7BC93",
"hX c #D4AB8B",
"jX c #E2B999",
"kX c #CCB8AD",
"lX c #DCAF92",
"zX c #B3CBB7",
"xX c #DAC392",
"cX c #E6C69B",
"vX c #EBD39B",
"bX c #D5CEB2",
"nX c #E9CAA5",
"mX c #E7D3A7",
"MX c #F4D6AA",
"NX c #F0D3B3",
"BX c #FBE5B7",
"VX c #F7E7B7",
"CX c #BEBBC6",
"ZX c #8CB7C7",
"AX c #F0BFCA",
"SX c #BACAD0",
"DX c #96C5D5",
"FX c #D2D1CC",
"GX c #EBDBC6",
"HX c #F3D3CE",
"JX c #FAE6C6",
"KX c #ECE4D7",
"LX c #F5EFD2",
"PX c #D4E8E8",
"IX c #F3ECE9",
"UX c #CFE3DB",
/* pixels */
"                                  ] 6 ` z.z.j.@.j.j.j.z.z. .' m ]                                   ",
"                                uX7 = s v V A A B B B V S x s = 3                                   ",
"                               . .c x V g.g.g.q.q.q.q.9.q.9.B s n  .O.                              ",
"                             .; : c C 0.g.h.r.r.r.r.r.r.r.q.6.B x 3 = x.zX                          ",
"                          m v a s V A S 9.9.6.6.8.5.5.8.5.5.5.B v s a ' x.x.                        ",
"                      ` 6 ; x V V V A B B M M y.M M y.N M N B h A V C s = n  .                      ",
"                  x.] n 6 ; h 7.9.7.6.8.5.6.6.5.5.5.8.6.7.7.7.7.6.6.7.C s a Y n                     ",
"                  6 ; 3 ` V 8.e.t.8.8.t.t.t.e.e.e.e.f.q.e.w.w.q.t.r.q.A C v a - -                   ",
"                  4 + a ^ ^ a.d.i.n.n.n.n.n.p.d.d.d.d.p.G.F.F.d.d.d.a.s.s.Z ; + $                   ",
"                  - + g a.d.'.V.n.Y.(.(.(.~.m.v.=.N.N.H.>XQ.m.v.N.N.V.d.l.~ a = =                   ",
"                yXc = f a.l.V.v.M.(.`.`.(.>XK.b.Z.N.=.W.`.(.T.b.D.A.].l.l.a.f = :                   ",
"            $.9 m m v ~ l.d.N.v.M.(.3XW.M.M.K./.Q.C.v.K.(.E.E.(.$XS.:.:.'.d.~ j s - 5 7XFX          ",
"      KX    O.$ # b L / '.'.C.b.m._.3XW.b.b.T._.!.b.b.W.).).).(./.Z.S.B.B.'./ L g % % 3.FXIX        ",
"KXfXwXfXnXfX2.q F F G ;.+X#X%X,X^.W.W.W.~.!.J.m.K.!.!.~.!.T.J.J.K.I./.L.B./ ( H F r t 3.fXbXfXfXkXGX",
"HXXX2..XgXaX2.H H H H v.+X>X^.3X_.J.T.~._./.I.,.S.1X_.^.!.L.D.C.J.W.<X%XZ.V.&.&.&.W W 2.aXsX X2..XGX",
"HX<.;.|.nXmXsX.X|.>.*.Z.>X^.W.m.J.R.~.R.J.Z.D.,.D._._.W.Z.{.|.#XK.H.T.H.Q.H.S.&.,.&X*XlXcXxX[./ 2.GX",
"AX4.W .XGXJXVXJXnX[.,.I.1X1XL.v.J.~._.J.b.C.A.,.Z.~.).K.D.].OXdX$XD.v.I.<X<XL.>.{.vXVXVXJXbX'.P 2.GX",
"AX7X<.qX XOXsXmXhX:.*.D.I.%X@X{.K.~.).E.W.I.L.S.Z.m.m.H.{.=XgXnXxXA.,.L.,X,XU.:.[.xXvXxX.X.XOXwXiXKX",
"      2.Q P XXkX XE H &.,.,.@X$X!._.).E.).3X,X$X@X*.H :.*XgXNXHXNX4.,.U.-X-X@X:.[.sXtX[.W | kXIX    ",
"      pX}.X.eXpXeX'.C.,.-.,.S.$X%X/.~.~.!.I.U.,.].2.;.|.xXnXNXJXAX.X@X@X].S.@X@XOXrXuXeXqXwXkX      ",
"          PXDX9XrX:X4XH.&.&.Z.$X,X$X%XL.Z.C.&.&.-.&X*XcXMXBXJXJXHXnXjX4.( ( H.<X:X9X0XDXDX          ",
"          UX9X5Xx.:X3XJ.&.-.>.,.].@X@XS.:.>.1.-.2.dXjXnXMXmXcXxXfX XXX1.E ( H._.2Xh.8XZX            ",
"            @.3 d Q.`.P.].1.p w w 1.4.>.&.W 4.hXlXMXBXnXjXaX'.E P 7 , R 1.A.W.).Q.d 0 8X            ",
"            #.# q >X1XL.,.1.K 5 y 3.4.<.W W XXjXvXMXBXgXsXwX3.+.] 9 5 ! ;.C.$X4X>X< + 6X            ",
"            $.$ w +X>XC.H ;.eXbXpX6X+.+.u W &XNXMXBXBXOX;.| +.+.$.CXbXXXE *.+X$X[.1 X qX            ",
"            O.$ 1 [.#X:.p W rXIXFX$.o.o.[ %.fXBXBXBXBXOXX.} o.o.6XPXIXtXR R 4.*XXX5 # 8X            ",
"                  F w 1 * q wXKXSX6Xo.7XCXFXGXJXBXBXBXmXkXCX6X5X%.FXKX}.e * w w K eXiX              ",
"                  7 > # X , }.GXCX+.o.pXIXIXIXJXBXBXBXLXIXPX7Xo.%.bXKX3.* O O & >                   ",
"                  %.%.8 + > <.tXiXwXiXFXKXLXLXGXJXJXJXLXLXUXSXeXtXtXtX..$ - ] #.%.                  ",
"                      n - : ! '.XXNXJXJXJXJXBXBXVXJXBXBXJXGXKXJXmX[.'.L X 6 x.                      ",
"                      m a < R ;.1.|..XhXcXMXvXMXMXMXnXnXMXjXlX&X|.;.X.L < 6  .z.                    ",
"                  9 0 3 m Y F F F F H 2.sXdXdXdXxXxXjXlXlXhX4.-.H ! G L b c 3 = -                   ",
"            wX} #.) 0 o.8Xx.a.g d G k / c.oXc.oXoXoXoX}.x.x.l.L P K d / x.x.m = > ] +.              ",
"            %.5 9 _ o.yXUXzXx.a a j l A 7.9.7.7.D A S 9.S V y.B Y d > }.bXbXx., 4 9 9 7X            ",
"        iX7X[ , 2 _ ] qXpXeX .d g C l B B N h h h h B B M M y.N Z 6 < x.tXtX2.r r & 2 O.qX          ",
"      { _ 8 e r U [ [ ) 6 7 T T d k Z C C B h j j j l B B N M B Z b d < 7 7 T K t y u y i ]         ",
"      8 2 $ t Q ! | X.> o : G G J L Z Z Z Z l u.u.u.u.u.k Z Z Z b Y ^ < # % F Q R R | t * r {       ",
"      ) 2 2 <.tXOXgXmX'.1 1 J d./ L L b b ~ c.:X;X;X;XF.J G G P L k.a.L : G }.bXgX*XaXW * r [       ",
"      _ 4 i 3.iXbXFXUX}.< 1 J s.~ k k L G J G.2XY.Y.Y.n.J J G P A w.h.Z s g }.GXFXkXkX#.5 8 {       ",
"      iXiXqX#.] 8 Y [ 6 # + j 7.~ s.~ a.k z u.p.i.i.p.u.J J ^ ^ w.A D f = # b U y y [ %.qX          ",
"            #.5 4 - > + X = s V S g.0.0.7.l l j j l j l l z 0.h.h.D v s + + # > > 5 4 3.            ",
"            eX..{ } ..> o . : ; s S 9.8.8.8.8.w.q.q.9.g.q.9.8.9.D a : + . > n { } } }               ",
"                      I > . + + = C l 9.f.f.f.f.f.h.k.h.h.g.9.B c = + X . 7 }                       ",
"                      y r > % # # < ; a f f f f f f v v v v x ; < @ # # & y y                       ",
"                  2 $ e u u w w * * O X X . . . + . + . X . . X o > , r U y 5 & 4                   ",
"                  $ O , [ U p p e , * $ X 0 4         # o X O $ * e t u U y > O @                   ",
"                  & O e u U R R u w e * O 9 #.        I 2 % * e t t R U U t > O o                   ",
"                  [ _ y y r 8 e e , 5 r y _           %.{ _ i e w q e q r r t I [                   ",
"                      u 5 % o # @ o o                     7XO.& O O O O % r U                       ",
"                      ] 5 o X X o X $                         & o o o @ O r #.                      "
};
