/* XPM */
static char *result[] = {
/* columns rows colors chars-per-pixel */
"50 50 41 1 ",
"  c #FFBF04",
". c #FFC006",
"X c #FFC40B",
"o c #FFC80F",
"O c #FFC513",
"+ c #FFCA13",
"@ c #FFC61E",
"# c #FFCE1A",
"$ c #FFD21E",
"% c #FFC721",
"& c #FFC922",
"* c #FFCA2D",
"= c #FFD425",
"- c #FFD925",
"; c #FFD42B",
": c #FFDB2B",
"> c #FFCB33",
", c #FFD433",
"< c #FFDB33",
"1 c #FFD63B",
"2 c #FFDB3B",
"3 c #FFE12E",
"4 c #FFE433",
"5 c #FFE837",
"6 c #FFE33C",
"7 c #FFEB3C",
"8 c #FFD743",
"9 c #FFD942",
"0 c #FFE342",
"q c #FFEC43",
"w c #FFE54D",
"e c #FFED4C",
"r c #FFEE53",
"t c #FFEF5C",
"y c #FFEF62",
"u c #FFEF6A",
"i c #FFF067",
"p c #FFF06D",
"a c #FFF074",
"s c #FFF178",
"d c None",
/* pixels */
"ddddddddddddddddddddddddd7-.dddddddddddddddddddddd",
"dddddddddddddddddddddddd77-.dddddddddddddddddddddd",
"ddddddddddddddddddddddd777-Xdddddddddddddddddddddd",
"ddddddddddddddddddddddd77e73+.dddddddddddddddddddd",
"dddddddddddddddddddddddqqeeq+ dddddddddddddddddddd",
"dddddddddddddddddddddd7qerrr# dddddddddddddddddddd",
"dddddddddddddddddddddd77qerr0:Xddddddddddddddddddd",
"dddddddddddddddddddddd777rree<Xddddddddddddddddddd",
"dddddddddddddddddddd5777quteq4@ddddddddddddddddddd",
"dddddddddddddddddddd777qqtte762#dddddddddddddddddd",
"dddddddddddddddddddd777qreee7qe#.ddddddddddddddddd",
"ddddddddddddddddddd7577et7qe7qe# ddddddddddddddddd",
"dddddddddddddddddd7777qrr77qeee<=Xdddddddddddddddd",
"ddddddddddddddddd7777qeee77qttee6Xdddddddddddddddd",
"ddddddddddddddddd777rr7qeqqeeeqe6Xdddddddddddddddd",
"dddddddddddddddddq7qrreeqqqqeeerw=#ddddddddddddddd",
"dddddddddddddddd7eeeerte7eq7erypur= dddddddddddddd",
"dddddddddddddddd77q7eertyrrrttyrrt= dddddddddddddd",
"ddddddddddddddd777qqeeeyuttytttrrt<+dddddddddddddd",
"dddddddddddddd777ertrretppapreeerte5oddddddddddddd",
"dddddddddddddd7777qqeruuytreqqqqqre6oddddddddddddd",
"dddddddddddddd77777qrtautee77777qerq#+dddddddddddd",
"ddddddddddddd77777qtasrrereeereerrtte;.ddddddddddd",
"dddddddddddd3$$$$$-:29<<<,<========;===odddddddddd",
"ddddddddddd7-o..X...O@@@@@O.........o-7o.ddddddddd",
"ddddddddd77eq3o.dddddddddddddddddddd57qO.ddddddddd",
"ddddddddd77rq5o.dddddddddddddddddddd7qr=#ddddddddd",
"ddddddddd7qte7+.dddddddddddddddddddd7etq-.dddddddd",
"dddddddd7qeree4-.dddddddddddddddddd77qre<.dddddddd",
"dddddddd7qreeqq:Xddddddddddddddddd77qere6#oddddddd",
"dddddddd7qeeq7e<Xddddddddddddddddd77ertrq7+.dddddd",
"dddddd77eqq7qetr9#.dddddddddddddd77qtttreq#.dddddd",
"dddddd77eq77erttt@Xdddddddddddddd777rtiree=+dddddd",
"ddddddre777ertree;@dddddddddddddd777etteee7:.ddddd",
"ddddd7ee7qqqrtrrt0;Xdddddddddddd7777ertreqq4Xddddd",
"ddddd7qe7qe7etrrtr6Xddddddddddd7777qerteqqe6+ddddd",
"ddddd7eeeq77eitretw@dddddddddd7577qerq7eee7qq#Xddd",
"dddd77errrerrttrqew21ddddddddd7777errq7qerq7e$.ddd",
"ddd777ritiiitetr77qt8>dddddddd7777rtrq77eteqe$oddd",
"ddd7qtrrtttqq7qqeqqe,@dddddd777rtrrreq77qrrr7q2Xdd",
"ddd7qyrttte77777qqqe2=dddddd77qrttrreqqqqrrr7q0Xdd",
"dd77etytte7777777ereq5&ddddd7qettettqqeerire7e0odd",
"dd7rtpupipspppptrttye3odddd777etttttytttttreeee6=.",
"dqqrtyttrpspuuiiyyuae4#+dddqeetyitttyitttteeeqer;X",
"eeerq7777qe777ertuuae77:@ddtpppuireeeerereee77qt2@",
"=##$$##$#$&=;=;,,881;=;&%>,,*;=;=#=,,;;111,,<119*@",
"..........X@%@%@%>*@@@@@&>*@X ....O@@@%>>>%&>>>>*@",
"dddddddddddddddddddddddddddddddddddddddddddddddddd",
"dddddddddddddddddddddddddddddddddddddddddddddddddd",
"dddddddddddddddddddddddddddddddddddddddddddddddddd"
};
