/* XPM */
static char *result[] = {
/* columns rows colors chars-per-pixel */
"50 50 230 2 ",
"   c #010100",
".  c #090501",
"X  c #040A01",
"o  c #0C0E02",
"O  c #140401",
"+  c #1C0401",
"@  c #140F02",
"#  c #061201",
"$  c #0A1401",
"%  c #0D1C01",
"&  c #141602",
"*  c #1D1401",
"=  c #141C01",
"-  c #181D03",
";  c #240501",
":  c #2A0601",
">  c #240C02",
",  c #2C0B01",
"<  c #310701",
"1  c #340B01",
"2  c #3B0B01",
"3  c #241503",
"4  c #2A1B02",
"5  c #331402",
"6  c #3C1202",
"7  c #331A03",
"8  c #3C1A02",
"9  c #152201",
"0  c #1B2401",
"q  c #1C2902",
"w  c #1B3500",
"e  c #0E2001",
"r  c #202402",
"t  c #222C02",
"y  c #292602",
"u  c #322504",
"i  c #3C2304",
"p  c #3C2C04",
"a  c #362A03",
"s  c #233302",
"d  c #2C3302",
"f  c #233903",
"g  c #2C3A02",
"h  c #343C03",
"j  c #3B3C03",
"k  c #373403",
"l  c #420C01",
"z  c #4D0B01",
"x  c #490701",
"c  c #530D01",
"v  c #5C0E01",
"b  c #441302",
"n  c #4A1302",
"m  c #441C02",
"M  c #4B1B02",
"N  c #531402",
"B  c #5D1202",
"V  c #521A03",
"C  c #5C1E03",
"Z  c #6B0F02",
"A  c #620D02",
"S  c #641401",
"D  c #6C1B03",
"F  c #691303",
"G  c #731202",
"H  c #731B04",
"J  c #7D1702",
"K  c #740E01",
"L  c #432503",
"P  c #4D2402",
"I  c #462B04",
"U  c #4B2C03",
"Y  c #452B09",
"T  c #542304",
"R  c #5B2203",
"E  c #532C03",
"W  c #5A2C04",
"Q  c #423404",
"!  c #4E3304",
"~  c #433C03",
"^  c #4D3B04",
"/  c #543404",
"(  c #5B3404",
")  c #533B04",
"_  c #5D3B05",
"`  c #583708",
"'  c #632305",
"]  c #6B2303",
"[  c #632C03",
"{  c #6B2B07",
"}  c #732405",
"|  c #7C2403",
" . c #772908",
".. c #623504",
"X. c #643B04",
"o. c #693907",
"O. c #783908",
"+. c #2C4401",
"@. c #3B4101",
"#. c #3B4C02",
"$. c #354203",
"%. c #424502",
"&. c #494904",
"*. c #534203",
"=. c #534C03",
"-. c #594207",
";. c #4B5403",
":. c #4C5C02",
">. c #5B5106",
",. c #545B02",
"<. c #5C5804",
"1. c #6C4C05",
"2. c #674807",
"3. c #764807",
"4. c #685506",
"5. c #785607",
"6. c #456501",
"7. c #5C6501",
"8. c #5A6C01",
"9. c #556802",
"0. c #5B7D05",
"q. c #5E7301",
"w. c #666902",
"e. c #7B6407",
"r. c #617501",
"t. c #6B7402",
"y. c #6A7C02",
"u. c #767405",
"i. c #841B02",
"p. c #8C1B02",
"a. c #821A05",
"s. c #961D03",
"d. c #991A02",
"f. c #A01E02",
"g. c #8A2805",
"h. c #932302",
"j. c #9D2504",
"k. c #962C05",
"l. c #833406",
"z. c #883B06",
"x. c #873209",
"c. c #9C3203",
"v. c #993608",
"b. c #913512",
"n. c #A72A05",
"m. c #B52904",
"M. c #A63805",
"N. c #BC3605",
"B. c #B53A03",
"V. c #B53905",
"C. c #B13810",
"Z. c #C33505",
"A. c #CC3905",
"S. c #864507",
"D. c #934B06",
"F. c #865A08",
"G. c #985C0A",
"H. c #975612",
"J. c #8B5013",
"K. c #A84805",
"L. c #B94605",
"P. c #A35B0D",
"I. c #A95A0B",
"U. c #AC5706",
"Y. c #B85708",
"T. c #A45B11",
"R. c #B65611",
"E. c #876C08",
"W. c #966D0A",
"Q. c #8C7407",
"!. c #9B7612",
"~. c #967804",
"^. c #A6660A",
"/. c #B86A06",
"(. c #AB760A",
"). c #BD730B",
"_. c #B77A0A",
"`. c #AC6F16",
"'. c #A64625",
"]. c #C94505",
"[. c #D54B08",
"{. c #CC5906",
"}. c #C65808",
"|. c #D45604",
" X c #C56509",
".X c #C56909",
"XX c #D56607",
"oX c #C87908",
"OX c #D57B06",
"+X c #D3790C",
"@X c #E87208",
"#X c #B27647",
"$X c #5A8104",
"%X c #738402",
"&X c #748C02",
"*X c #739302",
"=X c #6D8E05",
"-X c #7EA102",
";X c #968608",
":X c #8B900A",
">X c #A88607",
",X c #B7870A",
"<X c #B7960A",
"1X c #BC8C13",
"2X c #8ABA03",
"3X c #B7AC0C",
"4X c #ABA60A",
"5X c #CA8709",
"6X c #DE8D0B",
"7X c #D68708",
"8X c #C8920A",
"9X c #D89709",
"0X c #C79011",
"qX c #E58607",
"wX c #E69909",
"eX c #CBAA0B",
"rX c #DEA70B",
"tX c #D7B70C",
"yX c #D1AE13",
"uX c #E9AA0A",
"iX c #F9AC0C",
"pX c #ECB909",
"aX c #E5B40A",
"sX c #F8B311",
"dX c #8FCB04",
"fX c #CCC40F",
"gX c #E5C908",
"hX c #EED70C",
"jX c #DDE10A",
"kX c None",
/* pixels */
"kXkXkXkXkXkXkXkXkXkXkXkXkXkXkXkXkXkXkXkXkXkXkXkXkXkX^ U kXkXkXkXkXkXkXkXkXkXkXkXkXkXkXkXkXkXkXkXkXkX",
"kXkXkXkXkXkXkXkXkXkXkXkXkXkXkXkXkXkXkXkXkXkXkXkXkXkXP b kXkXkXkXkXkXkXkXkXkXkXkXkXkXkXkXkXkXkXkXkXkX",
"kXkXkXkXkXkXkXkXkXkXkXkXkXkXkXkXkXkXkXkXkXkXkXkXkXP b 1 M kXkXkXkXkXkXkXkXkXkXkXkXkXkXkXkXkXkXkXkXkX",
"kXkXkXkXkXkXkXkXkXkXkXkXkXkXkXkXkXkXkXkXkXkXkXkXM b 2 : l m kXkXkXkXkXkXkXkXkXkXkXkXkXkXkXkXkXkXkXkX",
"kXkXkXkXkXkXkXkXkXkXkXkXkXkXkXkXkXkXkXkXkXkXkXkXn l : + < b kXkXkXkXkXkXkXkXkXkXkXkXkXkXkXkXkXkXkXkX",
"kXkXkXkXkXkXkXkXkXkXkXkXkXkXkXkXkXkXkXkXkXkXkXkX6 l : + ; ; kXkXkXkXkXkXkXkXkXkXkXkXkXkXkXkXkXkXkXkX",
"kXkXkXkXkXkXkXkXkXkXkXkXkXkXkXkXkXkXkXkXkXkXkXkXI < < + O * ~ kXkXkXkXkXkXkXkXkXkXkXkXkXkXkXkXkXkXkX",
"kXkXkXkXkXkXkXkXkXkXkXkXkXkXkXkXkXkXkXkXkXkXkX) =.7 : O * %.) kXkXkXkXkXkXkXkXkXkXkXkXkXkXkXkXkXkXkX",
"kXkXkXkXkXkXkXkXkXkXkXkXkXkXkXkXkXkXkXkXkXkXkX*.=.Q + O u =.*.kXkXkXkXkXkXkXkXkXkXkXkXkXkXkXkXkXkXkX",
"kXkXkXkXkXkXkXkXkXkXkXkXkXkXkXkXkXkXkXkXkXkXkXP E ) 3 @ ~ U ) kXkXkXkXkXkXkXkXkXkXkXkXkXkXkXkXkXkXkX",
"kXkXkXkXkXkXkXkXkXkXkXkXkXkXkXkXkXn P ) P 8 8 L P E i y ) / E / kXkXkXkXkXkXkXkXkXkXkXkXkXkXkXkXkXkX",
"kXkXkXkXkXkXkXkXkXkXkXkXkXkXkXkXM l L -.P m 8 m P E U U ) / / / kXkXkXkXkXkXkXkXkXkXkXkXkXkXkXkXkXkX",
"kXkXkXkXkXkXkXkXkXkXkXkXkXkXkX6 1 2 5 / T M m m P T U I _ / / ( ` kXkXkXkXkXkXkXkXkXkXkXkXkXkXkXkXkX",
"kXkXkXkXkXkXkXkXkXkXkXkXkXkXkX2 + ; > U W T T P P ( ..o.S.V L / T kXkXkXkXkXkXkXkXkXkXkXkXkXkXkXkXkX",
"kXkXkXkXkXkXkXkXkXkXkXkXkXkXkX6 ; O @ 8 E E ( _ 2.(.).U.n.Z 2 V 6 kXkXkXkXkXkXkXkXkXkXkXkXkXkXkXkXkX",
"kXkXkXkXkXkXkXkXkXkXkXkXkXkXkX1 3 p ^ / Y 3.F.W 5.3X(.D.M.h.c Z a.kXkXkXkXkXkXkXkXkXkXkXkXkXkXkXkXkX",
"kXkXkXkXkXkXkXkXkXkXkXkXkXkXkXkX^ / ( 2.E.5.T H C ` x.O.H./.c.p.L.l.k.kXkXkXkXkXkXkXkXkXkXkXkXkXkXkX",
"kXkXkXkXkXkXkXkXkXkXkXkXkXkXkXkX) _ 2.F.-.b '  .S  .z.3.e.>X>XK.b.7 G.}.kXkXkXkXkXkXkXkXkXkXkXkXkXkX",
"kXkXkXkXkXkXkXkXkXkXkXkXkXkXkXkXkX5.F.1.c C Y o.6 m  .V 4 4.k i M.H W _..XT.kXkXkXkXkXkXkXkXkXkXkXkX",
"kXkXkXkXkXkXkXkXkXkXkXkXkXkXkXkXQ.5.X.} R 3   o   . ' C c z , l { a.o.7X7XT.kXkXkXkXkXkXkXkXkXkXkXkX",
"kXkXkXkXkXkXkXkXkXkXkXkXkXkXkX2.u.( W O.3           > M  .K z F ' o.i +X6X1XR.kXkXkXkXkXkXkXkXkXkXkX",
"kXkXkXkXkXkXkXkXkXkXkXkXkXkXS 5 L { W 3               Y S.l.D H l.u . G.6X;X`.R.kXkXkXkXkXkXkXkXkXkX",
"kXkXkXkXkXkXkXkXkXkXkXkXkXkXV 6 o.5.U .     > M > .   X @.e.J g.2..   o.qX`.E O.kXkXkXkXkXkXkXkXkXkX",
"kXkXkXkXkXkXkXkXkXkXkXkXkXV n o.e.1.I .   O B.uXyXD.b X # 4 ..5.g . E T.+X,Xm A g.kXkXkXkXkXkXkXkXkX",
"kXkXkXkXkXkXkXkXkXkXkXkXW W [ 1.5...I X   > ].iXsX@X| & $ X $ t q - .XsXXX0XY c H v.kXkXkXkXkXkXkXkX",
"kXkXkXkXkXkXkXkXkXkXkXN b ) 4.5.2.( I . X & ' k.k.N & r o X X X 9 e W L.K.oXM c A x.kXkXkXkXkXkXkXkX",
"kXkXkXkXkXkXkXkXkXkXT n 2 j u.1.( ( U $ $ 0 9 $ 9 = $ - # e f 6.$Xf = * 2.oX` Z K v kXkXkXkXkXkXkXkX",
"kXkXkXkXkXkXkXkXkXT V N l =.2.X.X.( I & 0 0 9 e d t 9 9 f 9.*X2XdX=Xf % j ).D.d.d.p.H kXkXkXkXkXkXkX",
"kXkXkXkXkXkXkXkXn N C V 5 ) ( 1._ / L = 9 9 9 % d q 0 q 9.=X$X+.w 6.0.w k _.Y.M.V.N.d.j.kXkXkXkXkXkX",
"kXkXkXkXkXkXkXX.R [ M 1 4 4.4.4./ / i & 0 t 9 9 t = 9 g 8.#.9 X X 9 6.$XQ._.G.[ v.XX].L.kXkXkXkXkXkX",
"kXkXkXkXkXkXkXX.kXkX2 < a =.j i ! E L - 9 r 9 t d % 9 $.+.$ X     X w 0.;X,X2.D g.kXkXkXkXkXkXkXkXkX",
"kXkXkXkXkXkXkXkXkX! M 1 @ $ 6 5 / I P r 9 t s %.@.t t h s X       X w 0.~.(.4.A K.>XkXkXkXkXkXkXkXkX",
"kXkXkXkXkXkXkXkXkXP l ; O * M 7 ! P U r e 9 h ,.,.&.h h g # X     $ +.q.W.>X4.c n./.kXkXkXkXkXkXkXkX",
"kXkXkXkXkXkXkXkXkXP 2 : > 8 6 a ! E ! Q q d d &.7.7.9.$.#.q # X $ s 6.4.F.>X=.2 D.<XkXkXkXkXkXkXkXkX",
"kXkXkXkXkXkXkXkX*.M 1 2 > M : a ! ^ p _ I a ~ :.y.r.q.,.;.#.f s +.:.y.E.F.;X^ x J U.kXkXkXkXkXkXkXkX",
"kXkXkXkXkXkXkXkXb 2 l 6 u E : p ) k u _ U ( 2.%X*X*X%X%Xy.q.8.8.9.8.4.Q.Q.e.T D | kXkXkXkXkXkXkXkXkX",
"kXkXkXkXkXkXkXkXm m L kXE n 1 p ^ , i ( P ..w.t.%X*X%Xt.u.%X&Xy.:.I N { >.<.m  .z.kXkXkXkXkXkXkXkXkX",
"kXkXkXkXkXkXkXkXQ kXkXkXV 6 , y 6 : p / T ) r.,.9.y.<.,.w.%X%Xt.:.6 S D 3 > S O.v.I.kXkXkXkXkXkXkXkX",
"kXkXkXkXkXkXkXkXkXkXkX3.T ' 5 O 2 > ~ / U k ;.@.#.,.j j =.,.7.,.&.5 c ] 6 2 ] z.M.`.H.v..XkXkXkXkXkX",
"kXkXkXkXkXkXkXkXkX}.V.x.}  .6 Y o.[ O.o.o.j k 0 d ;.~ k j @.;.;.5 2 ] S.R D | k.'.#Xb.kXkXkXkXkXkXkX",
"kXkXkXkXkXkXkXkXkXqX[.n.i. .z.T.R.m.s.g. .l...y 1./.}.b. .3.1.5.H C.R.F.!.4.N kXkXkXkXkXkXkXkXkXkXkX",
"kXkXkXkXkXkXkXkXkXkXkXkXkXD H a.J ' 5.>X<X`.F.e.XX[.Z.n.Z H b.v.R.+X0X0XkXkXkXkXkXkXkXkXkXkXkXkXkXkX",
"kXkXkXkXkXkXkXkXkXkXkXkXkXkX8 kX2 ` <XuXiXiXwX5XoX7X9XoXU.I._..X+XwX7X9XkXkXkXkXkXkXkXkXkXkXkXkXkXkX",
"kXkXkXkXkXkXkXkXkXkXkXkXkXkXJ.!.3.^.oX6XwXwX7XU.^.oX7XqXqX@X7XrXoX/.7XuXuXaXhX3X7 z kXkXkXkXkXkXkXkX",
"kXkXkXkXkXkXkXkXkXkXb.H.T.H.!.fXgXaXaXaXuX5X/./.OXpXhXtX_.^.,XeX6X+XrXrX0X9XpXfXY F j.g.g.g.j.Z.XXkX",
"kXkXkXkXkXkXkXx. .'  .H S 6 u :XjXgXaXuX7X5XgXrXOX XU.c.p.K G i.k.m.].}.W.-.3.5.M Z s.n.L..XkXkXXXkX",
"kXkXkXkXM.b.k.H z B K J n.g.B M 4.4XeX(.E.&.5.{.Z.m.m.f.A l v v A a.m.A.{.1.2 k.a.h.h.m.L.8XkXkXkXkX",
"kXkX.X X].N.j.K a.C.L.v.v.k.a.J A L P ' D , I oX|.A.Z.s.v i.B.L.M.s.j.N.|.6XkXkXkXkXkXkXkXkXkXkXkXkX",
"kXkXkX9X+XB.j.kXkXkXkX>XU.V.m.s.J g.c.M.U.kXkXkX6X+XL.n.C.kXkXkXkXkXkXkXkXkXkXkXkXkXkXkXkXkXkXkXkXkX",
"kXkXkXkXkXkXkXkXkXkXkXkX_.Y.n.M.M.kXkXkXkXkXkXkXkXeXkXkXkXkXkXkXkXkXkXkXkXkXkXkXkXkXkXkXkXkXkXkXkXkX"
};
