/* XPM */
static char *result[] = {
/* columns rows colors chars-per-pixel */
"50 50 224 2 ",
"   c #1F2523",
".  c #242525",
"X  c #252827",
"o  c #2B2A26",
"O  c #252629",
"+  c #272929",
"@  c #2C2B2B",
"#  c #2A272A",
"$  c #332D2A",
"%  c #393629",
"&  c #372D31",
"*  c #333333",
"=  c #393434",
"-  c #3C3B3B",
";  c #393638",
":  c #2C2B39",
">  c #413C29",
",  c #45383A",
"<  c #57323D",
"1  c #4D2E38",
"2  c #632E3E",
"3  c #6C6C1B",
"4  c #61611F",
"5  c #72701B",
"6  c #494722",
"7  c #5E5124",
"8  c #434138",
"9  c #574B24",
"0  c #6B5C23",
"q  c #645526",
"w  c #745D29",
"e  c #7C6826",
"r  c #756A30",
"t  c #4A4B1E",
"y  c #2A2D4B",
"u  c #3F3E40",
"i  c #303572",
"p  c #493A43",
"a  c #573A48",
"s  c #692E42",
"d  c #693448",
"f  c #7A374B",
"g  c #783749",
"h  c #693D53",
"j  c #444344",
"k  c #4B4B4A",
"l  c #494746",
"z  c #544A4B",
"x  c #5B514D",
"c  c #555454",
"v  c #5B5553",
"b  c #5D5A59",
"n  c #60534C",
"m  c #6A4A5A",
"M  c #615956",
"N  c #635D5B",
"B  c #6A5A57",
"V  c #77585D",
"C  c #69615C",
"Z  c #74635B",
"A  c #736747",
"S  c #6E5561",
"D  c #646363",
"F  c #6C6867",
"G  c #746B68",
"H  c #7A7071",
"J  c #F5333E",
"K  c #945D38",
"L  c #836D25",
"P  c #966D2E",
"I  c #997928",
"U  c #906D37",
"Y  c #A47330",
"T  c #F0453A",
"R  c #CD792D",
"E  c #843D53",
"W  c #8F3F58",
"Q  c #913F57",
"!  c #F73544",
"~  c #F62C40",
"^  c #8E4059",
"/  c #914059",
"(  c #904056",
")  c #93795F",
"_  c #91426A",
"`  c #8B4168",
"'  c #A54A77",
"]  c #877B78",
"[  c #997175",
"{  c #F04946",
"}  c #919214",
"|  c #8E8C16",
" . c #A89C15",
".. c #ACAA14",
"X. c #9A812C",
"o. c #A88923",
"O. c #BA892B",
"+. c #BA9525",
"@. c #A08130",
"#. c #9FA110",
"$. c #CCA81E",
"%. c #D9B91B",
"&. c #ECBC1E",
"*. c #E2B81D",
"=. c #C98928",
"-. c #C39826",
";. c #D28B28",
":. c #F78F22",
">. c #C9A423",
",. c #D5A624",
"<. c #DBB223",
"1. c #EBBC22",
"2. c #E4B721",
"3. c #F1B925",
"4. c #E6AD2D",
"5. c #CBCA0D",
"6. c #D7CF0D",
"7. c #E9C918",
"8. c #F3C81B",
"9. c #F3D813",
"0. c #E7D50E",
"q. c #E7E309",
"w. c #F4EE06",
"e. c #F4EA0A",
"r. c #F4E70B",
"t. c #F4F304",
"y. c #F9F604",
"u. c #F6F903",
"i. c #F9F902",
"p. c #F7F808",
"a. c #F7C721",
"s. c #F2CD2A",
"d. c #9C8177",
"f. c #A4877E",
"g. c #F9DC68",
"h. c #2D3EB8",
"j. c #303EBB",
"k. c #2F40BF",
"l. c #4D42B9",
"z. c #313EC3",
"x. c #2E40C9",
"c. c #3140C7",
"v. c #3141CA",
"b. c #3A42C5",
"n. c #4B43C1",
"m. c #BA5587",
"M. c #B1538C",
"N. c #A9698C",
"B. c #9B4DAE",
"V. c #BD51A7",
"C. c #A750B0",
"Z. c #A46EAE",
"A. c #944781",
"S. c #CC5A92",
"D. c #DB5496",
"F. c #CF548D",
"G. c #E3569B",
"H. c #E35B9D",
"J. c #C96496",
"K. c #D455A4",
"L. c #EB5AA3",
"P. c #E957A2",
"I. c #DC6AA5",
"U. c #EB77B4",
"Y. c #EA6EB0",
"T. c #FA7983",
"R. c #A36FC9",
"E. c #948A89",
"W. c #958D8C",
"Q. c #AC8B82",
"!. c #A4928B",
"~. c #B5968A",
"^. c #A79C97",
"/. c #B19E98",
"(. c #B7AAAA",
"). c #B1AFAF",
"_. c #9D9FA0",
"`. c #C6A499",
"'. c #D4A99D",
"]. c #D585B5",
"[. c #CF83AF",
"{. c #C2B1AD",
"}. c #C8B2A9",
"|. c #DCB5A6",
" X c #C7B7B5",
".X c #D0B2AB",
"XX c #E7BAAC",
"oX c #E5BEB2",
"OX c #E590A4",
"+X c #D7C3BB",
"@X c #C6C2BD",
"#X c #EDC9BD",
"$X c #F4C3B4",
"%X c #F3CABC",
"&X c #F5C4AF",
"*X c #FAFB8C",
"=X c #F489C5",
"-X c #F596CC",
";X c #FA99D2",
":X c #F698D1",
">X c #E990C5",
",X c #CBC7C6",
"<X c #D4C7C5",
"1X c #DBD4D3",
"2X c #E6CDC6",
"3X c #F7CBC5",
"4X c #ECD4CC",
"5X c #EDD0C6",
"6X c #F4D5CB",
"7X c #EADAD7",
"8X c #F3DBD3",
"9X c #FADED6",
"0X c #F6DCD5",
"qX c #FAE2DB",
"wX c #EEE8DE",
"eX c #E6DFE0",
"rX c #EDE5E5",
"tX c #E9E7E7",
"yX c #F1EBEB",
"uX c #F3EAE6",
"iX c #FCFDFC",
"pX c #F8F3F3",
"aX c #F9F1F0",
"sX c None",
/* pixels */
"sXsXsXsXsXsXsXsXsXsXsX- - sXsXsXsXsXsXsXsXsXsXsXsXsXsXsXsXsXsXsXsXsXsXsXsXsX- u sXsXsXsXsXsXsXsXsXsX",
"sXsXsXsXsXsXsXsXsXsXsX* @ sXsXsXsXsXsXsXsXsXsXsXsXsXsXsXsXsXsXsXsXsXsXsXsXsX# * sXsXsXsXsXsXsXsXsXsX",
"sXsXsXsXsXsXsXsXsXsXsX* * sXsXsXsXsXsXu j k k k k k k k k k j u sXsXsXsXsXsX* * sXsXsXsXsXsXsXsXsXsX",
"sXsXsXsXsXsXsXsXsXsXsX@ @ sXsXsXsXsX; + O O O . + O O O O O + + - sXsXsXsXsX@ * sXsXsXsXsXsXsXsXsXsX",
"sXsXsXsXsXsXsXsXsXsXH F F sXsXsXsXsXr 3 3 3 3 3 3 3 3 3 3 3 3 3 r sXsXsXsXF F F H sXsXsXsXsXsXsXsXsX",
"sXsXsXsXsXsXsXsXk @ D tXtXF @ @ : > 5.p.t.t.t.u.t.t.u.t.t.t.t.u.5.> * * : F tXeXD * k sXsXsXsXsXsXsX",
"sXsXsXsXsXsXsXsXl O D rXuXD . o % t 5.y.t.u.u.i.u.u.i.u.u.u.t.y.5.6 % o O F yXrXb X j sXsXsXsXsXsXsX",
"sXsXsXsXsXsXsXsX- O N rXrXD . 0 6.6.0.8.9.u.u.u.t.t.u.u.u.p.9.8.0.6.5.4 . D uXrXb + - sXsXsXsXsXsXsX",
"sXsXsXsXsXsXsXsX- X N rXuXD . 5 y.y.8.1.9.p.p.p.i.i.y.y.y.y.9.&.8.t.t.3   D uXrXb # - sXsXsXsXsXsXsX",
"sXsXsXsXsXsXsXsX- O c <X,Xb . 3 t.y.<.,.7.r.s.g.*Xg.:.:.8.9.&.,.%.u.y.3 O b <X,Xc @ - sXsXsXsXsXsXsX",
"sXsXsXsXsXsXsXsXu O z (.(.x . 5 t.t.>.O.,.3.s.pXpXOXJ T 3.&.,.O.$.t.t.3   c (.(.k @ - sXsXsXsXsXsXsX",
"sXsXsXsXsXsXsXsXsX; b W.E.j . 5 t.t.6.>.<.<.4.$X3XT.J J 4.*.%.$.%.t.t.3 O l E.E.c ; sXsXsXsXsXsXsXsX",
"sXsXsXsXsXsXsXsXsXsXsX* & @ O 3 t.p.t.t.7.+.=.{ ! ! J T R -.6.w.t.y.t.3 + + @ * sXsXsXsXsXsXsXsXsXsX",
"sXsXsXsXsXsXsXsXsXsXsX- * + O 3 w.t.y.i.0.-.=.T J J ! T =.-.0.y.t.y.e.3 + & * 8 sXsXsXsXsXsXsXsXsXsX",
"sXsXsXsXsXsXsXsXsX* F {.{.x . 3 7.9.w.i.w.q.0.;.R R R ;.0.r.w.y.w.9.7.0 O c (.}.C ; sXsXsXsXsXsXsXsX",
"sXsXsXsXsXsXsXsX- X M 8X8XN . 0 3.a.w.i.i.i.w.>.O.+.=.$.w.i.y.i.r.8.&.0 . N 8X8Xb + u sXsXsXsXsXsXsX",
"sXsXsXsXsXsXsXsX- X M 4X7XN   0 &.1. .} } } | e w w w e | } } } #.a.2.q O C 8X4XM O - sXsXsXsXsXsXsX",
"sXsXsXsXsXsXsXsXj O N 8X8XN   e 3.%.9 . X X X X . . . . . . .   9 2.1.0   C 8X6Xb O k sXsXsXsXsXsXsX",
"sXsXsXsXsXsXsXsXj . B 3X4X] k r $.+.B c c c x z z 8 x z c c v c A +.>.r k ] 5X5Xv # j sXsXsXsXsXsXsX",
"sXsXsXsXsXsXsXsXl X n XXoX2X5X^.% 8 @XtXtXtXeX+XXX'.XXXXrXtXtXtX X8 % ^.4X5X$XoXn O k sXsXsXsXsXsXsX",
"sXsXsXsXsXsXsXsXl X x |.XX6XqX/.O ; ,XiXpXyXyX#X$X$X$X%XrXyXpXiX,X* @ (.qX6XXX|.x . k sXsXsXsXsXsXsX",
"sXsXsXsXsXsXsXsXl O * x B }.%X~.@ ; ,XiX).D H +X6X6X8X+XG D ).iX,X* @ !.%X`.n x = # k sXsXsXsXsXsXsX",
"sXsXsXsXsXsXsXsXj @ + . @ ~.$XQ.# - ,XiX_.X 8 +XqXqXqX+X- + _.iX,X; $ Q.$X~.+   O # l sXsXsXsXsXsXsX",
"sXsXsXsXsXsXsXsXk @ % e e ) d.Z @ * ,XaX_.+ 8 +XqX0XqX+X- @ ^.pX X* o Z f.) L e % o l sXsXsXsXsXsXsX",
"sXsXsXsXsXsXsXsXk . 7 2.1.7 O X X ; }.qX!.X 8 +XqX0XqX+X- . !.qX{.= + O . q *.2.7 O k sXsXsXsXsXsXsX",
"sXsXsXsXsXsXsXsXj + 7 1.&.e 6 > X ; .X9X^.k b +XqXqXqX+Xb l /.qX}.= X 6 6 e &.2.7 # j sXsXsXsXsXsXsX",
"sXsXsXsXsXsXu * @ X q 1.8.0.q.#.@ * `.$X#X2X2X8X0XqX0X8X2X2X#X$X`.% o  .q.0.7.1.7 O @ * u sXsXsXsXsX",
"sXsXsXsXsXsX* + o X q *.1.r.u...$ = `.XX#X8XqXqX9X0XqX0X8X8X#X&X~.= $ ..u.r.&.<.7 # o O * sXsXsXsXsX",
"sXsXsXsXsXsX* o e +.I 0 q 3 3 K ' ' V B C Z H |.%X%X%X+XH F B B S ' ' A 3 3 0 e X.+.e # * sXsXsXsXsX",
"sXsXsXsXsXsX* # o.s.+.o O O   h H.G.1 . X . = '.$X$X&X'.=       a G.P.d O     o +.8.o.$ * sXsXsXsXsX",
"sXsXsXsXsXsXj l I o.I Z S - X h Y.I.a X & < 8 [ f.f.f.[ < 1 & o a I.Y.m . - G G @.o.U 8 k sXsXsXsXsX",
"sXsXsXsXsXsXsXsX8 o x XXXXn O m -X>Xz   < ( ( = o @ X % ^ Q < . a >X-Xm . N 4X4Xb X 8 sXsXsXsXsXsXsX",
"sXsXsXsXsXsXsXsX- + x oX$XG ; V ].].a $ < Q E , $ & $ 1 E / < o a I.].F , G 4X4XG p c sXsXsXsXsXsXsX",
"sXsXsXsXsXsXsXsX- O M 5X6X|.'.Q.p p < 2 g Q / E E E E E Q / g 2 a p p Q.'.|. X X,X1X^.; u sXsXsXsXsX",
"sXsXsXsXsXsXsXsX- X M 8X0X3XoXQ.o # 2 d f Q ( ( W W W W Q Q f d 2 o # Q.XXXX{. XrXpX(.+ * sXsXsXsXsX",
"sXsXsXsXsXsXsXsX; X N eXuX2X|.E.@ % I O.K E g f f g f f f E K =.P o @ v G ] (. X,X<XW.@ * sXsXsXsXsX",
"sXsXsXsXsXsXsXsX- X D rXyX,X{.N.# % >.8.Y 2 s 2 s s s s s s O.8.-.$ .     z (.(.{. X] @ * sXsXsXsXsX",
"sXsXsXsXsXsXsXsX; + b rXaX1X@XW.@ $ I o.Y K K P P P P P K K Y +.@.B m h d S ^.(.(._.E.k c sXsXsXsXsX",
"sXsXsXsXsXsXsXsX- X N tXaXaXpX).@ # # # L 8.7.r.w.t.t.r.a.1.e # z >X-XY.D.S.sXsXsXsXsXsXsXsXsXsXsXsX",
"sXsXsXsXsXsXsXsX- X b 1XeXeXeX_.; = 1 ; L 2.%.r.w.y.w.r.%.<.r & m >X:XY.L.m.sXsXsXsXsXsXsXsXsXsXsXsX",
"sXsXsXsXsXsXsXsX; + * k c z z H [.[.[.].[ 6 q <.8.8.8.<.q 6 [ ].].:X;X=X-XU.S.F.sXsXsXsXsXsXsXsXsXsX",
"sXsXsXsXsXsXsXsX; @ O O . . . m :X;X;X;XN.O > $.8.&.&.>.% O N.;X;X:X:X-X-X=XL.G.sXsXsXsXsXsXsXsXsXsX",
"sXsXsXsXsXsXsXsX; X , ` _ _ _ M.U.U.-X;XZ.h.y r L L L e i h.Z.;X;X;X-X=XU.I.m.' sXsXsXsXsXsXsXsXsXsX",
"sXsXsXsXsXsXsXsX- X a D.L.G.P.P.L.L.=X;XR.z.h.: . o o @ h.h.R.;X;X:X:XY.G.F.sXsXsXsXsXsXsXsXsXsXsXsX",
"sXsXsXsXsXsXsXsXsX- h F.G.D.G.D.S.S.U.=XR.v.h.i y y y i j.v.R.=X=X=X=XJ.D.m.sXsXsXsXsXsXsXsXsXsXsXsX",
"sXsXsXsXsXsXsXsXsXsXsXsXsXsXsXsXsXsXD.L.B.z.z.c.z.j.j.j.v.z.B.L.L.L.H.M.sXsXsXsXsXsXsXsXsXsXsXsXsXsX",
"sXsXsXsXsXsXsXsXsXsXsXsXsXsXsXsXsXsXF.D.B.b.v.v.v.z.z.v.b.b.B.H.G.G.D.N.sXsXsXsXsXsXsXsXsXsXsXsXsXsX",
"sXsXsXsXsXsXsXsXsXsXsXsXsXsXsXsXsXsXsXsXM.V.C.n.v.z.v.n.C.V.A.sXsXsXsXsXsXsXsXsXsXsXsXsXsXsXsXsXsXsX",
"sXsXsXsXsXsXsXsXsXsXsXsXsXsXsXsXsXsXsXsXJ.G.K.l.z.z.x.l.K.G.' sXsXsXsXsXsXsXsXsXsXsXsXsXsXsXsXsXsXsX",
"sXsXsXsXsXsXsXsXsXsXsXsXsXsXsXsXsXsXsXsXsXD.V.l.h.h.j.l.V.D.sXsXsXsXsXsXsXsXsXsXsXsXsXsXsXsXsXsXsXsX"
};
