/* XPM */
static char *result[] = {
/* columns rows colors chars-per-pixel */
"29 50 150 2 ",
"   c black",
".  c #211D1A",
"X  c #1E231E",
"o  c #23271E",
"O  c #2D261F",
"+  c #232E1D",
"@  c #2E291F",
"#  c #392214",
"$  c #29311E",
"%  c #2A381C",
"&  c #1E1C21",
"*  c #221F20",
"=  c #212120",
"-  c #292420",
";  c #242C22",
":  c #2D2C23",
">  c #322C24",
",  c #3B2C20",
"<  c #233324",
"1  c #2D3120",
"2  c #233C26",
"3  c #283A26",
"4  c #333024",
"5  c #3A3524",
"6  c #533119",
"7  c #743E12",
"8  c #402F20",
"9  c #533521",
"0  c #583722",
"q  c #4B382D",
"w  c #663D20",
"e  c #36491B",
"r  c #34421A",
"t  c #335C13",
"y  c #396E0F",
"u  c #3F770F",
"i  c #3F780E",
"p  c #316111",
"a  c #3C6C11",
"s  c #27502B",
"d  c #296431",
"f  c #2C7434",
"g  c #357733",
"h  c #3A7B34",
"j  c #6D451F",
"k  c #70461F",
"l  c #437F0D",
"z  c #436815",
"x  c #4A6419",
"c  c #524C25",
"v  c #5B442C",
"b  c #6C4420",
"n  c #7A4B20",
"m  c #605A2A",
"M  c #665C23",
"N  c #43464C",
"B  c #595D60",
"V  c #BB1515",
"C  c #864E1D",
"Z  c #B65A0F",
"A  c #AC591A",
"S  c #B4601D",
"D  c #915935",
"F  c #C56619",
"G  c #D14B30",
"H  c #C96F28",
"J  c #9D6A40",
"K  c #B2734B",
"L  c #C47C4E",
"P  c #EA784F",
"I  c #2F8739",
"U  c #44820D",
"Y  c #4C920C",
"T  c #539A0E",
"R  c #448210",
"E  c #4B8711",
"W  c #599615",
"Q  c #61A614",
"!  c #64A915",
"~  c #68AC16",
"^  c #65A219",
"/  c #6AB118",
"(  c #7D9221",
")  c #98AF1F",
"_  c #8C842A",
"`  c #9C8D2D",
"'  c #A5932F",
"]  c #AE9C2F",
"[  c #99AA22",
"{  c #ABAF27",
"}  c #A3B522",
"|  c #B1BF24",
" . c #BFA43F",
".. c #C7A308",
"X. c #CBA807",
"o. c #D4AD05",
"O. c #D0AB09",
"+. c #CEB405",
"@. c #DFB600",
"#. c #E3BD1C",
"$. c #EDB915",
"%. c #FCBF1F",
"&. c #CFAF2F",
"*. c #DEA521",
"=. c #DDB922",
"-. c #D3B22B",
";. c #D9B625",
":. c #CBAC34",
">. c #C1A63D",
",. c #C6A938",
"<. c #C7AA37",
"1. c #CEB533",
"2. c #D1B932",
"3. c #F9B928",
"4. c #F5BB32",
"5. c #BBC127",
"6. c #D2C002",
"7. c #FACD04",
"8. c #F5CA0A",
"9. c #FECB0D",
"0. c #F4C908",
"q. c #FFD100",
"w. c #EDC412",
"e. c #E7C017",
"r. c #FEC61D",
"t. c #FFCE15",
"y. c #C2C629",
"u. c #C2D02B",
"i. c #FFE63A",
"p. c #BCA242",
"a. c #D28653",
"s. c #DF8E58",
"d. c #EF8655",
"f. c #E78D50",
"g. c #E38E58",
"h. c #E5915A",
"j. c #E89556",
"k. c #FA9C5E",
"l. c #F4A34E",
"z. c #FAAD4F",
"x. c #FA9E60",
"c. c #FCA060",
"v. c #E2A270",
"b. c #A3A29B",
"n. c #A7AEB3",
"m. c #F0C6A8",
"M. c #EDE4DD",
"N. c #FFE8D6",
"B. c #F5E6DA",
"V. c None",
/* pixels */
"V.V.V.V.V.V.V.V.V.V.V.V.V.>.p.V.V.V.V.V.V.V.V.V.V.V.V.V.V.",
"V.V.V.V.V.V.V.V.V.V.V.V.V.p.=.q.V.V.V.V.V.V.V.V.V.V.V.V.V.",
"V.V.V.V.V.V.V.V.V.V.V.V.p.=.7.q.V.V.V.V.V.V.V.V.V.V.V.V.V.",
"V.V.V.V.V.V.V.V.V.V.V.V.p.e.q.q.V.V.V.V.V.V.V.V.V.V.V.V.V.",
"V.V.V.V.V.V.V.V.V.V.V.V.;.8.q.q.q.V.V.V.V.V.V.V.V.V.V.V.V.",
"V.V.V.V.V.V.V.V.V.V.V.p.w.q.q.q.q.V.V.V.V.V.V.V.V.V.V.V.V.",
"V.V.V.V.V.V.V.V.V.V.V.-.8.q.q.7.q.q.V.V.V.V.V.V.V.V.V.V.V.",
"V.V.V.V.V.V.V.V.V.V.p.8.q.q.q.q.q.q.V.V.V.V.V.V.V.V.V.V.V.",
"V.V.V.V.V.V.V.V.V.V.:.8.q.q.q.q.q.q.q.V.V.V.V.V.V.V.V.V.V.",
"V.V.V.V.V.V.V.V.V.,.8.q.q.q.q.q.q.q.q.V.V.V.V.V.V.V.V.V.V.",
"V.V.V.V.V.V.V.V.V.>.7.q.q.q.q.q.q.q.q.q.V.V.V.V.V.V.V.V.V.",
"V.V.V.V.V.V.V.V.<.8.q.q.7.q.q.q.q.q.q.q.V.V.V.V.V.V.V.V.V.",
"V.V.V.V.V.V.V.V.,.7.q.q.q.q.q.q.q.q.q.q.q.V.V.V.V.V.V.V.V.",
"V.V.V.V.V.V.V.:.w.q.q.q.q.q.q.q.q.q.q.q.q.q.V.V.V.V.V.V.V.",
"V.V.V.V.V.V.V.:.q.V.V.V.V.V.V.V.V.V.V.V.=.8.V.V.V.V.V.V.V.",
"V.V.V.V.V.V.:.#.q.V.V.V.V.V.V.V.V.V.V.V.p.8.q.V.V.V.V.V.V.",
"V.V.V.V.V.V.-.q.q.V.V.V.V.V.V.V.V.V.V.V.-.8.q.V.V.V.V.V.V.",
"V.V.V.V.V.<.=.q.q.q.V.V.V.V.V.V.V.V.V.>.8.q.q.q.V.V.V.V.V.",
"V.V.V.V.p.;.q.q.q.q.V.V.V.V.V.V.V.V.V.:.7.q.q.q.q.V.V.V.V.",
"V.V.V.V.p.=.q.q.q.q.q.V.V.V.V.V.V.V.,.7.q.q.q.q.q.V.V.V.V.",
"V.V.V.p.=.q.q.q.q.q.q.V.V.V.V.V.V.V.<.7.q.q.q.7.q.q.V.V.V.",
"V.V.V.p.#.q.q.q.q.q.q.q.V.V.V.V.V.:.8.q.q.q.q.q.q.q.V.V.V.",
"V.V.p.#.7.q.q.q.q.q.q.q.V.V.V.V.V.:.q.q.q.q.q.q.q.q.q.V.V.",
"V.V.p.e.q.q.q.q.q.q.q.q.q.V.V.V.:.w.q.q.q.q.q.q.q.q.q.V.V.",
"V.V.=.8.q.q.q.q.q.q.q.q.q.V.V.V.1.q.q.q.q.q.q.q.7.q.q.V.V.",
"V.p.w.q.q.q.9.%.q.q.q.q.q.q.V.e.e.q.q.q.q.r.9.q.q.q.7.q.V.",
"V.-.8.q.q.q.%.l.q.q.q.q.q.q.q.q.q.q.q.q.t.z.r.q.q.q.q.q.V.",
">.8.q.7.o.o.4.l.$.X.q.O...+.6.+...+.7.O.4.z.*.@.7.q.q.q.q.",
"V.V.V.V.  0 h.x.s.q V.; 1 z Y a < + V.v j.c.D # V.V.V.V.V.",
"V.V.V.V.  0 a.h.h.a.5 y W ^ ^ ^ W y 5 a.h.h.L 9 V.V.V.V.V.",
"V.V.V.V.V.. : > > 4 a % 1 1 1 1 $ % a 4 > > > . V.V.V.V.V.",
"V.V.V.V.V.V.2 f d X : { 2.2.2.2.2.] $ o d f 2 V.V.V.V.V.V.",
"V.V.V.V.V.V.s I f : ] M c c c c c M ] : f I 2 V.V.V.V.V.V.",
"V.V.V.V.V.V.; s f = m b.N 6 C 6 N b.m ; f s < V.V.V.V.V.V.",
"V.V.V.V.V.V.V.< f X w M.B 7 F 7 B M.w = f < V.V.V.V.V.V.V.",
"V.V.V.V.V.V.V.< g j S B.n.J Z J n.B.S j g < V.V.V.V.V.V.V.",
"V.V.V.V.V.V.V.< h C S m.N.v.H v.N.m.S C h < V.V.V.V.V.V.V.",
"V.V.V.V.V.V.V.< d 3 C f.x.d.P d.k.f.C 3 d < V.V.V.V.V.V.V.",
"V.V.V.V.V.V.V.V.; f ; K h.G V G j.K ; f ; V.V.V.V.V.V.V.V.",
"V.V.V.V.V.V.V.V.; f < : C A A A C ; < f ; V.V.V.V.V.V.V.V.",
"V.V.V.V.V.V.V.V.V.+ u U r - @ O r U u ; V.V.V.V.V.V.V.V.V.",
"V.V.V.V.V.V.V.V.V.o l Q E u u l E Q l o V.V.V.V.V.V.V.V.V.",
"V.V.V.V.V.V.V.V.V.X U ~ ~ ~ Q ! ~ ~ U X V.V.V.V.V.V.V.V.V.",
"V.V.V.V.V.V.V.V.5 ' e R T Q / Q T R e ' 5 V.V.V.V.V.V.V.V.",
"V.V.V.V.V.V.V.$ z ) ` { x ( u.( x { ` ) z $ V.V.V.V.V.V.V.",
"V.V.V.V.V.V.V.+ t t } | _ :.i.1._ | } t t + V.V.V.V.V.V.V.",
"V.V.V.V.V.V.> , , = t p [ y.5.y.[ p t = , , , V.V.V.V.V.V.",
"V.V.V.V.V.V., C n , * & t y y a t & = , n C , V.V.V.V.V.V.",
"V.V.V.V.V.V., j k b - V.= = = * = V.- b j k , V.V.V.V.V.V.",
"V.V.V.V.V.V.= = = = = V.V.V.V.V.V.V.= = = = = V.V.V.V.V.V."
};
