/* XPM */
static char *result[] = {
/* columns rows colors chars-per-pixel */
"32 50 210 2 ",
"   c #1E1C1F",
".  c #211D1E",
"X  c #381F0F",
"o  c #1D251D",
"O  c #22221F",
"+  c #242C1D",
"@  c #2A2C1F",
"#  c #382518",
"$  c #24331B",
"%  c #2A3D1A",
"&  c #293A19",
"*  c #35351E",
"=  c #1E1C21",
"-  c #161420",
";  c #201F20",
":  c #1F2020",
">  c #1E2F23",
",  c #1E3626",
"<  c #222220",
"1  c #2A2521",
"2  c #232B23",
"3  c #2C2B23",
"4  c #2C2B29",
"5  c #332C21",
"6  c #3D2D20",
"7  c #332C29",
"8  c #233B27",
"9  c #293323",
"0  c #313221",
"q  c #3D3428",
"w  c #3E3936",
"e  c #442A19",
"r  c #512F15",
"t  c #4D371E",
"y  c #55341A",
"u  c #5A351D",
"i  c #5A381E",
"p  c #4B3420",
"a  c #483927",
"s  c #523720",
"d  c #563A23",
"f  c #4F372A",
"g  c #2A4C14",
"h  c #2C4219",
"j  c #324B1A",
"k  c #384918",
"l  c #2C5313",
"z  c #345415",
"x  c #355A15",
"c  c #3B730E",
"v  c #3C6B13",
"b  c #396313",
"n  c #3E7111",
"m  c #3B6F0F",
"M  c #244429",
"N  c #264D2B",
"B  c #264427",
"V  c #24532D",
"C  c #26592E",
"Z  c #2A572A",
"A  c #334C27",
"S  c #26622F",
"D  c #29612F",
"F  c #2B6D32",
"G  c #2A6531",
"H  c #2C7534",
"J  c #2D7B36",
"K  c #367A34",
"L  c #4A561E",
"P  c #65411F",
"I  c #7E4C1F",
"U  c #7C4518",
"Y  c #635117",
"T  c #427D0E",
"R  c #446615",
"E  c #4E7D1A",
"W  c #497A14",
"Q  c #537C1A",
"!  c #506E18",
"~  c #4D4B24",
"^  c #544C25",
"/  c #585325",
"(  c #664225",
")  c #7B4B20",
"_  c #675A26",
"`  c #70562B",
"'  c #576D2B",
"]  c #696528",
"[  c #72692D",
"{  c #3F4248",
"}  c #57595B",
"|  c #5E6164",
" . c #BB1E14",
".. c #BF2619",
"X. c #854B1B",
"o. c #984E16",
"O. c #8D501D",
"+. c #AE5A18",
"@. c #B45D1A",
"#. c #B25619",
"$. c #B3590F",
"%. c #866D12",
"&. c #B8611B",
"*. c #8A542C",
"=. c #AF5F20",
"-. c #877B2A",
";. c #926239",
":. c #BB6927",
">. c #A96228",
",. c #C16419",
"<. c #D64436",
"1. c #CD482A",
"2. c #CF7134",
"3. c #8A5942",
"4. c #9D6543",
"5. c #A86F47",
"6. c #BE7B4E",
"7. c #B4734C",
"8. c #AF794C",
"9. c #C57C4D",
"0. c #E76E49",
"q. c #2F8638",
"w. c #2E8237",
"e. c #308C3A",
"r. c #4B8C0D",
"t. c #46850D",
"y. c #4D940C",
"u. c #54970D",
"i. c #4B8911",
"p. c #5D9411",
"a. c #599914",
"s. c #52851A",
"d. c #78981B",
"f. c #679017",
"g. c #5DA412",
"h. c #5FA814",
"j. c #64AA15",
"k. c #66AA16",
"l. c #6CB118",
"z. c #81981E",
"x. c #AC8E0C",
"c. c #B4970E",
"v. c #9BB41F",
"b. c #85A11C",
"n. c #BBA406",
"m. c #BBB504",
"M. c #9B8A2C",
"N. c #94922A",
"B. c #AE9C2E",
"V. c #A4992C",
"C. c #B19D2F",
"Z. c #B49E30",
"A. c #9DAE22",
"S. c #A6AA27",
"D. c #B6B729",
"F. c #B8A231",
"G. c #A2BA20",
"H. c #CBA707",
"J. c #E7B11C",
"K. c #D9B626",
"L. c #DEBA21",
"P. c #D7B529",
"I. c #C5AC35",
"U. c #CCAD32",
"Y. c #C3A63B",
"T. c #C5A839",
"R. c #CCBE30",
"E. c #F5BA20",
"W. c #B4C329",
"Q. c #FBCE04",
"!. c #F1C70E",
"~. c #F3C90B",
"^. c #FFD100",
"/. c #FFD800",
"(. c #E7C018",
"). c #EEC510",
"_. c #C7CC2C",
"`. c #DED430",
"'. c #F5D937",
"]. c #F1CA30",
"[. c #FFE339",
"{. c #BDA341",
"}. c #8B8766",
"|. c #AD8F75",
" X c #D18552",
".X c #CF8355",
"XX c #E2894D",
"oX c #E38E54",
"OX c #EA9257",
"+X c #FA9D5E",
"@X c #F4985D",
"#X c #FFA55F",
"$X c #DA9A68",
"%X c #F69C63",
"&X c #DAA77E",
"*X c #FAA368",
"=X c #F9A670",
"-X c #948F89",
";X c #9E9EA1",
":X c #B4B3B2",
">X c #EABB98",
",X c #EED3BD",
"<X c #BBBFC3",
"1X c #BEC1C3",
"2X c #CBCACB",
"3X c #FFE9D9",
"4X c #FCE1CF",
"5X c #E9E8E7",
"6X c #EFF4F7",
"7X c None",
/* pixels */
"7X7X7X7X7X7X7X7X7X7X7X7X7X7X7X7X7X7X7X7X7X7X7X7X7X7X7X7X7X7X7X7X",
"7X7X7X7X7X7X7X7X7X7XP.^.7X7X7X7X7X7X7X7X7X7X7X7X7X7X7X7X7X7X7X7X",
"7X7X7X7X7X7X7X7X7XT.L.^.7X7X7X7X7X7X7X7X7X7X7X7X7X7X7X7X7X7X7X7X",
"7X7X7X7X7X7X7X7XT.(.Q.^.7X7X7X7X7X7X7X7X7X7X7X7X7X7X7X7X7X7X7X7X",
"7X7X7X7X7X7X7X7XT.!.^.^.^.7X7X7X7X7X7X7X7X7X7X7X7X7X7X7X7X7X7X7X",
"7X7X7X7X7X7X7XY.U.!.^.^.^.^.7X7X7X7X7X7X7X7X7X7X7X7X7X7X7X7X7X7X",
"7X7X7X7X7X7X{.P.!.Q.^.Q.^.^.7X7X7X7X7X7X7X7X7X7X7X7X7X7X7X7X7X7X",
"7X7X7X7X7X7X{.K.^.^.^.^.^.^.7X7X7X7X7X7X7X7X7X7X7X7X7X7X7X7X7X7X",
"7X7X7X7X7X7XT.L.Q.^.^.^.^.^.^.7X7X7X7X7X7X7X7X7X7X7X7X7X7X7X7X7X",
"7X7X7X7X7XI.(.Q.^.^.^.^.^.Q.^.7X7X7X7X7X7X7X7X7X7X7X7X7X7X7X7X7X",
"7X7X7X7X7XT.!.^.^.Q.^.^.^.^.^.^.7X7X7X7X7X7X7X7X7X7X7X7X7X7X7X7X",
"7X7X7X7XY.U.!.^.^.^.^.^.^.^.^.Q.^.7X7X7X7X7X7X7X7X7X7X7X7X7X7X7X",
"7X7X7X{.P.!.Q.^.^.^.Q.^.^.^.^.^.^.7X7X7X7X7X7X7X7X7X7X7X7X7X7X7X",
"7X7X7X{.K.^.^.^.^.^.^.^.^.^.^.^.^.7X7X7X7X7X7X7X7X7X7X7X7X7X7X7X",
"7X7X7XT.L.^.^.^.^.^.^.^.^.Q.^.^.^.^.7X7X7X7X7X7X7X7X7X7X7X7X7X7X",
"7X7XT.(.Q.^.^.^.Q.^.^.^.^.^.^.^.^.^.7X7X7X7X7X7X7X7X7X7X7X7X7X7X",
"7X7XI.!./.^.^.^.^.^.^.^.^.Q.^.^.^.^.Q.7X7X7X7X7X7X7X7X7X7X7X7X7X",
"7XY.U.!.^.^.^.^.^.^.^.^.^.^.^.^.^.^.^.^.7X7X7X7X7X7X7X7X7X7X7X7X",
"{.P.!.^.^.^.^.^.^.^.Q.^.^.^.^.^././.^.^././.7X7X7X7X7X7X+X7X7X7X",
"{.L.^.^.^.^.^.H.c.J.].E.c.n.Q.H.x.x.n.m.m.x.%.Y 7X7X7X XoX7X7X7X",
"7X7X7X7X7X7X7X7Xa 6.#XOX` 7 7X@ @ % R y.r.z + O 7X7Xq 8. Xd X e ",
"7X7X7X7X7X7X7X7X7 6.*X%X.X3.2 g R s.a.h.j.a.s.v % f 9.@XoX*.r # ",
"7X7X7X7X7X7X7X7X4 ;.7.5.7.3.j g n E E E Q E E b g ~ 5.7.4.( e # ",
"7X7X7X7X7X7X7X7X< 1 3 3 1 j v h 0 0 0 0 3 0 3 0 x v 0 4 4 1 < ; ",
"7X7X7X7X7X7X7X7X> N S C > o h N.F.B.Z.B.B.B.Z.B.' $ o M C S 8 o ",
"7X7X7X7X7X7X7X7X1 F e.J , * _ M.B.F.B.Z.Z.Z.Z.S.-.^ 1 V q.e.N = ",
"7X7X7X7X7X7X7X7X2 G e.H , _ I.[ 4 3 5 5 5 3 3 q M.C.0 V w.J N ; ",
"7X7X7X7X7X7X7X7X7X8 C H 8 * ] -X-X4 y X.U # { ;X}.^ 1 Z H M 8 7X",
"7X7X7X7X7X7X7X7X7X  M H 8 . f 2X<X4 U &.&.r } 5X-X# O V F 2 7X7X",
"7X7X7X7X7X7X7X7X7X  M H 8 y >.,X<Xw X.&.&.i } 5X&XO.# V H 2 7X7X",
"7X7X7X7X7X7X7X7X7X. B K _ o.:.,X6X:X8.$.>.|.2X6X&X$.O.' H 2 7X7X",
"7X7X7X7X7X7X7X7X7X. B K _ +.:.>X3X4X$X,.2.>X3X4X$X#.O.' H 2 7X7X",
"7X7X7X7X7X7X7X7X7XO M H 8 u =.oX=X*X@XXXOX%X=X*X9.O.e C F 2 7X7X",
"7X7X7X7X7X7X7X7X7X7X8 M Z A P 9.+X@X0.<.<.0.%X%X>.p Z V M 7X7X7X",
"7X7X7X7X7X7X7X7X7X7X7X< G S 1 ;. XXX1. ...2.oX9.f 8 H N . 7X7X7X",
"7X7X7X7X7X7X7X7X7X7X7X2 G C 2 2 ( =.@.#.@.,.o.f 4 8 F N ; 7X7X7X",
"7X7X7X7X7X7X7X7X7X7X7X7XM A x x k u u u u u t z x z N 8 7X7X7X7X",
"7X7X7X7X7X7X7X7X7X7X7X7X= h t.y.T & $ & & $ l i.y.R + 7X7X7X7X7X",
"7X7X7X7X7X7X7X7X7X7X7X7X= g t.h.a.t.T T T T i.j.g.m + 7X7X7X7X7X",
"7X7X7X7X7X7X7X7X7X7X7X7X  h r.h.l.g.g.g.g.g.j.l.g.m o 7X7X7X7X7X",
"7X7X7X7X7X7X7X7X7X7X7X7X~ / n u.k.k.k.l.k.k.j.j.r.v ~ a 7X7X7X7X",
"7X7X7X7X7X7X7X7X7X7X7X0 B.M.0 v y.r.j.l.l.a.r.r.l / I.[ : 7X7X7X",
"7X7X7X7X7X7X7X7X7X7X% b d.S.V.S.z.k z.W.W.Q L A.V.V.v.f.z + 7X7X",
"7X7X7X7X7X7X7X7X7X= % c m d._.`.S./ T.[.'.-.[ R.`.D.W c b + 7X7X",
"7X7X7X7X7X7X7X7X7X: < 9 + z p.p.b.R.'.'.'.].D.f.p.W % + + : 7X7X",
"7X7X7X7X7X7X7X7X1 p d p 1 o g g ! v.v.v.v.G.b.z g h   6 d d 6 : ",
"7X7X7X7X7X7X7X7XO P X.) p 1 ; = % n n n n c b + . O 1 P X.I t : ",
"7X7X7X7X7X7X7X7X1 P X.) ) d < 7X7X$ $ $ $ $ + 7X= @ ( ) X.) p = ",
"7X7X7X7X7X7X7X7X< e p p d 6 < 7X7X7X7X7X7X7X7X7X= 1 t p t p 5 ; ",
"7X7X7X7X7X7X7X7X< < < : : : : 7X7X7X7X7X7X7X7X7X< < : : : : < < "
};
