/* XPM */
static char *result[] = {
/* columns rows colors chars-per-pixel */
"50 50 189 2 ",
"   c #34571F",
".  c #375D24",
"X  c #385C24",
"o  c #35532D",
"O  c #365B2D",
"+  c #3A5E2C",
"@  c #345334",
"#  c #365B32",
"$  c #3B5D32",
"%  c #3D5F3A",
"&  c #3B6324",
"*  c #37622A",
"=  c #3C632C",
"-  c #3D6433",
";  c #3D6931",
":  c #3D643A",
">  c #45721F",
",  c #405C33",
"<  c #426126",
"1  c #426A26",
"2  c #41652E",
"3  c #446B2E",
"4  c #4C6E2C",
"5  c #467129",
"6  c #4C732E",
"7  c #4F792F",
"8  c #557D2F",
"9  c #416533",
"0  c #446B33",
"q  c #4A6D34",
"w  c #43653B",
"e  c #446A3A",
"r  c #496C3A",
"t  c #4C7334",
"y  c #4E7935",
"u  c #477038",
"i  c #4D743B",
"p  c #4E793A",
"a  c #517635",
"s  c #537B35",
"d  c #52763B",
"f  c #58773C",
"g  c #547B3C",
"h  c #5A7D3D",
"j  c #3E6246",
"k  c #4E6642",
"l  c #446B42",
"z  c #4B6E41",
"x  c #516E42",
"c  c #4E7541",
"v  c #4F7A41",
"b  c #527643",
"n  c #557C42",
"m  c #5A7D43",
"M  c #5B7548",
"N  c #547D49",
"B  c #59774B",
"V  c #607F43",
"C  c #60764F",
"Z  c #677C53",
"A  c #568133",
"S  c #5B8436",
"D  c #56813B",
"F  c #5B833C",
"G  c #5E893D",
"H  c #618337",
"J  c #608C37",
"K  c #61853C",
"L  c #68863C",
"P  c #628B3D",
"I  c #6A8F3F",
"U  c #66903E",
"Y  c #6B923E",
"T  c #568142",
"R  c #5C8442",
"E  c #5E8944",
"W  c #568149",
"Q  c #5D844A",
"!  c #5E8A4A",
"~  c #5E8451",
"^  c #628544",
"/  c #688646",
"(  c #638B44",
")  c #698D44",
"_  c #63854B",
"`  c #698749",
"'  c #648B4A",
"]  c #6B8D4B",
"[  c #708E4E",
"{  c #659144",
"}  c #6C9245",
"|  c #659149",
" . c #6C934C",
".. c #6F994E",
"X. c #729346",
"o. c #789843",
"O. c #73944C",
"+. c #78964E",
"@. c #749A4D",
"#. c #799A4E",
"$. c #618650",
"%. c #668C52",
"&. c #6C8D52",
"*. c #66805B",
"=. c #718E52",
"-. c #679451",
";. c #6D9252",
":. c #6F9852",
">. c #6E9159",
",. c #749553",
"<. c #789653",
"1. c #759A54",
"2. c #7A9B55",
"3. c #749559",
"4. c #79965A",
"5. c #759A5A",
"6. c #7B9B5B",
"7. c #76A04E",
"8. c #7EA04F",
"9. c #7CA254",
"0. c #7EA854",
"q. c #7DA25C",
"w. c #7FA85A",
"e. c #778E60",
"r. c #7A9761",
"t. c #7B9D61",
"y. c #759361",
"u. c #7EA362",
"i. c #809F53",
"p. c #819E5C",
"a. c #81A157",
"s. c #85AA55",
"d. c #8AAE54",
"f. c #82A55B",
"g. c #84AB5C",
"h. c #8AAB5E",
"j. c #86B05C",
"k. c #88B058",
"l. c #92B358",
"z. c #96BE5E",
"x. c #829F61",
"c. c #82A262",
"v. c #85AA62",
"b. c #89AD62",
"n. c #89A56C",
"m. c #86AD6E",
"M. c #8CAD6A",
"N. c #87B061",
"B. c #8CB365",
"V. c #8CB26A",
"C. c #92B464",
"Z. c #94BC64",
"A. c #91B56A",
"S. c #98B66C",
"D. c #95BA6C",
"F. c #9ABC6C",
"G. c #9AB564",
"H. c #8DAC71",
"J. c #8EB670",
"K. c #95BA73",
"L. c #9ABE72",
"P. c #9CC26D",
"I. c #9CC273",
"U. c #9EC57D",
"Y. c #9FC879",
"T. c #A2C66F",
"R. c #A3CA6F",
"E. c #A9CC6E",
"W. c #A3C574",
"Q. c #A8C777",
"!. c #A4CA74",
"~. c #AACD75",
"^. c #A3C679",
"/. c #A5CB7B",
"(. c #AACD7C",
"). c #B0CF7F",
"_. c #A7D074",
"`. c #ADD275",
"'. c #ADD27C",
"]. c #ACD97C",
"[. c #B2D47D",
"{. c #A7C587",
"}. c #AACE82",
"|. c #A6CD8A",
" X c #A9CC89",
".X c #AED282",
"XX c #B1D582",
"oX c #B2D78A",
"OX c #B8D88C",
/* pixels */
"w , m c.n.4.M k c $ @ @ w w r : w w B Z C e.n.H.<.< e w r g i + @ $ M Z Z k o o w b g < , @ , b b 9 ",
"( s Y ].`.R.Y } P 5 = 3 s s A D s A ) 9.o.l.`.`.F.s h D ) } ( q 9 q =.h.p.f 3 9 T | ) g e e a ) ] K ",
"g 0 -.|. XY.H S ! : : - b b b c N b _ 6.<.n.{. Xm.m b b ] Q $.l l % $.6.3.i w : i ' ' i # : 0 P ( A ",
"{ A ( F P Y } #...D R g  .O.` ( T A 2.D.G.f.( _ P S S S G A F 3 0 1 s.Z.Z.P t 3 F 1. .1.v.V...5 d 0 ",
"( ! Q O - r 3.r.2.G E F 4.p.6. .( F B.`..Xq.. # 0 Q ' E s p b - w 2 L.Q.}.,.g N ) 6.2.b.`.`.V.e w # ",
"U ) T = 9 r 4.x.,.( F P <.4.<.] { S s.!..Xq.& u i -.' ( a g g e 9 < K..X.XO.t i ^ 3.=.f.[.XXH.o e $ ",
"S A s t t d ` ] O.f.g.w.,.&.;.F p t ;.h.V. .3 u p R D D h T T F _ R ,.,.5._ F F #.B.C.g.i.2.2.F _ f ",
"n p W v W D R ( J Y.].P.O.( P > : - p T ( F T n g y a g ] ' %.2.t.5.q X X W | F V.^.`.v.d z R @.6.<.",
"D y a i d s ( ! ) ^.`.`.1.' ( y ; ; t ( G a g d b d D y G F F 1.1.5.i : w Q ( S b./.XXb.4 a g 6.6.=.",
"E g ( @...@.D n h w.j.u.R b n g ; 3 ) a.f.@.^ _ T u t y q.0.f.( ' _ n t t g E D 2.A.C.f.O.2.,. .] V ",
"' F 9.]._.I.3 - ; t 5 t 3 ; 9 0 W t b.(.(.F.O.p. .& * t ^.'./.t O = R { | F n c ) #.X.l..XoXD.6 n i ",
"| F @.'..XI.1 - 0 p T v e - = b D t f.(.).S.O.c.] 9 e g ^.~.^.q - = E ( S D p c / 6.<.h.Q.(.A.a b r ",
"J F ] M.V.c.y i 0 p g d d d t m g g :.V.V.f.<.,.( 0 - p D.P.D.g t u T R s E R m &.$.[ 2.F.D.f.g _ m ",
"A F r 9 2 t T ' ' n g g 3.t.2.[ ! ( d & & t ' ) R W b m 2.@.#.^ ( F 0 3 = ] 6.c.m 9 2 q J S ) t.6.&.",
"s g g = + 4 E ' ( D s d =.,.6.) G ' g ; * t ( S n t t m 2.6.2. .( ' 3 0 - %.4.2.E - + d | G ( 5.p.<.",
"T p n b h g R E G p n R 2.9.h.} P ( g e 0 T  .@.%.F D ^ =.6.;.F F ( 3 0 q ' 4.2.g u e m  .} O.2.<.] ",
"( S @./._.Z.s b y E E ( G.~.!.g.<.2.X.F G 0.~.`.D.+.<.O.) K ' 9 : ; ! | ! D g p T ( G 9.(./.A.S ( D ",
"{ S 1.'.XXY.F u A ' ! ( D.).(.h.<.2.O.F G w.(.~.L.2.6.,.) ( ' 3 w = R F ! D g g D | R g.(.'.D.( | F ",
"! F ;.I.I.B.F g D T T E B.W.W.c.3.:. .E E q.L.P.V.;.5.>.^ R F i q 4 ( )  .F h m S E T q.I.!.M.n E g ",
"u 1 3 F D F D ] E t 0 2 F h h 0 - 1 u s a g T F d 1 e i d F F ] ,.<.D.T.^.v.,.6.F g i F Y P F 9 u = ",
"9 9 9 d g g ^ ( R 9 ; ; f d d r w ; t D g p f d y 3 - 0 g s y 5.2.<.P.~.(.v.O.6.| g p n | ( E 9 e = ",
"0 q t g g g ( H ' 3 0 - d m m 9 : - u p d g g g t 9 - ; n D d :.4.+.F.Q.Q.b.<.p.R g p D ' E n 2 r = ",
">.,.' E T  .I.!.V.T v b ] 3.4.m c p 7.I.I.M.2.,.' n b p ! R T n q 3 ) } O.^ h g w.I.K.9.d d _ ,.3.$.",
"x.q.O.( (  .!.R.(.R t g <.p.2.^ v 6 9..X[.B.O.q.] g g D ( ( _ 9 w = E F K T g q q..X_.j.6 g R 1.p.&.",
"i.2.1.R E X.!.E.U.F y s  .6.6.^ t s 9.'.}.C.,.t.,.g a s F  .R 0 = 0 R | ( D p i 2..X'.v.b b ^ #.4.[ ",
") ' R t t t f.f.g.( E E d i u &.5.] ,.#.2.( q 4 ( V.K.B.s D T R R n g g D q.D.C.0.@.7.F 0 e p T V d ",
"J ( T 2 9 0 6.4...G R ] 3 9 = %.c.2. .D ( d 0 , g (..XI.d p m F } ( g b i B.'._.g.8 U y 0 : e b n r ",
"} ( T O w 9 5.6.1.E ' -.0 0 9 _ O.+...R -.s = X ^ '.!.P.n b m ( S F g d d M..X[.v.S ( y = + 0 g g q ",
"p t Q q.c.q.^ ^ _ h i b t i u 5.F.G.1.7 E g n m ) h.d.9.p z i ] 1.O.( F K _ ] ;.:.;.,.2.c.c.2.} &.R ",
"j O A [.'.!.f m i i . 9 p R 6 D.).).9.6 p F ! E ' O.#.] 9 - 2 ,.6.,.) J ) t + $ f 5.,.M.XXOXL.<.6.,.",
"u = F '.R.F.s q i 0 = = i a 6 v.'.'.9.a d R ( E  .2.c.3.0 = 3 3.x.<.] G ' t 9 - ( c.#.h.!.Q.L.<.p.[ ",
"D 3 ` M.A.M.s.9.u.D ^ Q 5.u.c.f.0.b.,._ %.E R S h R M V r m d _ ` ^  .;. .g t 3 F  .) 2.C.C.b.] =./ ",
"{ | ( ,.2.2.}.).(.f.<.2.W.~.}.6.D A  .1.6. .t T u ; 9 = :.! | p p T ,.,.2._ b W T ( H L p.<. .F ( F ",
"| ( ] 1.O.#.W.}.W.f.2.+.T.'.(.9.( (  .6.t.] t t u 9 0 0 D F S y p g ,.5.6.R t t s | ;.] 2.<.;.) | F ",
"T d ^ B.b.B.j.A.g.) ] ^ g.B.j.@.)  .R _ $.] 6.1.' q - i 9.w.9.F D g ] -.;. .,.#.! p n '  .6. .n D p ",
"u . h }.(.I.P S ' 9 - - Q E G -.<.u.m 9 9 ;.}.~.V.g g ^ /.^.^.} F ( p i t V..XXX1.= * v ( ( g 9 9 + ",
"e . h (./.I.F ) ! 0 - : Q -.E 1.1.q.Q = .  ..X(.D.d a h (.!.(.) ) ' D i 6 B.'.'.1.. + r E ( m 9 e $ ",
"t 3 ) L.L.D.^ R R s y y g E S | 1.:.R h F @.A.Z.v.K h ( A.D.A.F Q t  .)  .w.D.F. .F ^ ^ (  ._ 2 u - ",
":.( P @.O.,.f f s E E G s d g R F S v..X XB.( A ] O.<.,.( P P t 0 0 K.^.`.9.G g j.(.(.S.<.2.;.g m i ",
"( F ) 6.6.4.f n n R F ! D g b ^ | F b.`.~.d.G | ) 2.r.5.( { ^ 0 - - K.'.~.9.D ! w.'.T.G.+.c. .t s t ",
") F ) ,.;.%.h a D | Y } K m ^ R R h s.Q.Q.f.g ! ( 1.1.O.R E Q t 0 u V.I.^.,.E R w.^.W.b.,.5. .h V a ",
"| ( n 9 0 t ' E ) K.^.I.s.,.3.K g s ) +.2./ < 0 q ( P G = 9 0 T ' R 9.1.2.( g s G 2.2.X.F ' ] 4.2.[ ",
"S | Q : w 0 ' F ( I.XX`.f.<.6.^ g i ' 6.x.Z = w u ( G G 0 e 0 E ( G  .6.5.' t 7 | 2.2.@.( ( ` 6.p.,.",
"-.! h 0 q q ^ ( } A.I.I.s.,.6.h b c ] 6.<.m q q d E { ( 2 - ; F | E  .2.3.Q t W ( 2.;. .) (  .3.4.] ",
"7 8 } D.W.S.2.2.} O.P  .( K ] t = 2 d g s 9.^.L.A.2.,.;.^ ) ' n d s E P  .g 0 - s } F 9.Q.!.b.1 r - ",
"R y } ~.(.W.+.4.1.] S F G ( ' t 3 0 i y 4 #..X`.F.6.c.3.( P ( g b g ( J E t - - 6 ' R g.~.(.A.& ; - ",
"n s  .^.(.L.q.6.1.' ' E | ( F q 2 9 r n n 1./.^.D.<.5.3.) ( R T p p F ( T t 0 3 F T R f.(.(.M.- 9 = ",
"| R g g ^ a ( ) ) t t u y s n %.:.>.b 0 9 d 2.+.] f F T u 0 t ( 1.:.S s D u.K.J. .0 0 F i.f.5.r b e ",
"! E T = - 0 ! E G ; 9 = p n d  .2.2.K + - t F G F t p t ; : 9 ,.2.2.h g t B.`.`.1.O - s 2.4.] a D t ",
"{ { E 0 0 e ' { { 0 e 9 s W g O.p.i.^ 9 e d | | G D D g 0 l r ,.9.5.h T a V.[.[.6.$ e h x.p.,.n D t "
};
