/* XPM */
static char *result[] = {
/* columns rows colors chars-per-pixel */
"50 50 88 1 ",
"  c #5B3B16",
". c #5D3C19",
"X c #5D3F25",
"o c #5D3E29",
"O c #64431D",
"+ c #684719",
"@ c #6D4A1D",
"# c #5E4026",
"$ c #5F4827",
"% c #5F4228",
"& c #654523",
"* c #694623",
"= c #664924",
"- c #6B4A25",
"; c #674729",
": c #654B2B",
"> c #6C4B29",
", c #714C25",
"< c #704F29",
"1 c #6E5026",
"2 c #6E502A",
"3 c #735325",
"4 c #7A5525",
"5 c #775826",
"6 c #74532B",
"7 c #79552C",
"8 c #75582B",
"9 c #7B592C",
"0 c #654C31",
"q c #704E30",
"w c #755431",
"e c #795631",
"r c #775830",
"t c #7C5B32",
"y c #825422",
"u c #825E2C",
"i c #815E33",
"p c #83622F",
"a c #856435",
"s c #886736",
"d c #856439",
"f c #88673A",
"g c #8D6B3B",
"h c #916E35",
"j c #926E3A",
"k c #93713E",
"l c #99733C",
"z c #8D6B40",
"x c #9B7543",
"c c #9D7945",
"v c #9E794A",
"b c #A17D44",
"n c #A47F4B",
"m c #A88146",
"M c #A5824B",
"N c #AB854C",
"B c #AF894E",
"V c #B0874E",
"C c #B18A4E",
"Z c #A78550",
"A c #AD8651",
"S c #AE8952",
"D c #AF8B5B",
"F c #B28B53",
"G c #B88F54",
"H c #B28B58",
"J c #B79055",
"K c #BA9356",
"L c #BE9957",
"P c #B69058",
"I c #BC9559",
"U c #BE985B",
"Y c #C09552",
"T c #C39B55",
"R c #C0975E",
"E c #C49D5C",
"W c #C99F5E",
"Q c #C7A05D",
"! c #CAA25D",
"~ c #C59E61",
"^ c #C89F62",
"/ c #C6A061",
"( c #CAA262",
") c #CEA866",
"_ c #CAA56B",
"` c #CEA96A",
"' c #D1A967",
"] c #D2A96A",
/* pixels */
"767866-@-8347783661=--**==**:*-883888877,-*383669:",
"777666*&>6767<66681OO&*=***&*@=663w6366t-**>766690",
"w66666>*><66759ete3><><><><-,-17r9979r66--*6777w7:",
"-*-767<63<*-AEUIRYKKKIIIIIIIIIIIUUILItO-,33883665=",
"*=>667676=&>U!EQE!Q!!!QQQQQQTQQTQQEW(9O&,86w66869:",
"-*2w66w611*,JQTEERREELEEEEEEE~/ER~ET/pO*3666w666e:",
"-O*>*,8<tSJSEEQPFJFJJJJJJJJJJFJJGGTQQPKPg,e6=*=--&",
"-=**=-878/!EQEEJAFVVSSFVFBFFCFFAVFTEQEW(c-e3===&-#",
"**>=*@6,4TTEEQ~PAHFFHHSHAFHHFFVFAFEEEWTWl-5-&==;-%",
"--;:&7DHVQEEKJJIRUTITUUTULUTIRUT~RKKFEEEKNFgO>=*-#",
">;:>&u_/!TE~FSFR!EQEEEEQQEQEQ/~EQ/FAV~~EE!]cO>&**X",
"*&&@ 5REEE/EGVFTEQEQEQQE!E/E~~EQQECVCT~EET~h O+*-X",
"7>dncMT!TKKJKLUREEIKKGKKKKKIIKKEETIRIKKKEQQBbngO-%",
"9,z](^EWLJSCE/EQT/GVHSAHHVFVFNCEE!EQ/JVFKQQQ(]A#>&",
"93h!YE(EEFAFEELEE!KVFFFFVHFFFVKEWWEE!FBAI!EQY!n&*X",
"e,j(ERKKIIII~EEUIIILIIKIKIKIRIIIKIEE~TLKLKKIE!Z><&",
"91kQEEVNFEE~EEEGFVKEEQQQEEEWE!TFFVR^ER//KBCIR!Z29=",
"91k!UEFHFEEEWE~PFNTWEEEQEEEEEETVFCE^EWE~JAAIE!N19>",
"6*z!~UFHFEEEYIIIKKRE!TITR~IR!E~KPKIRI~EEKAFIE!M=6*",
"*&f!EEVHFE!EFVFTE~EREIAFFFSFER~EEEGHVTE~KFFIE!MO*&",
",OfWERFHGE^EFFFYEWWE~IBFFHAJ~~~EEWFFHT!~KSFIQ!bO>o",
",&f!R~FHFEWTFHFR/ERILIJJFPPI~UIEEEVFHLEEJFAIE!MO>&",
"-&s!^TFFFEEEFGHREEKFFI~EEEEUACFEEEFVFRE/KCFIQ!M#*X",
",&s!~YFFGEEEFHFT!EIFVI/EQ/QEFFFEEEFHFTEWJVFKE!n&-X",
",%s!^TFHGEEEKFHIEEKAAKQEELEUHFFETEFHFTE/JFHIE(nO-#",
",%s!^YFFFEQTFHSTEEKFFULQLFFFSHFEEEFGFIE~KAFKE!nX-#",
",&f!~TFHFEEEFHAIWQJFSIEQKAFHHFGEEWFHFTE~FCFKE!n&-#",
",Xi(EIFHFTQEFGFTEEKBJKEQIHFFGCJRETFHHT~~KFFI!!nO-#",
",Of/WTFVF!TWFHFR!!RERICJFVHG~REQEEFHFRE/KFFKT!M&-#",
"*Of!ERHHCE!EFFFUETE~^IFFFHSK~EEQEEGHFT!~KVAIE!nO-#",
",Og!ETFHFEELCCCT!QEEEIHFHFFFQTEQ/~JAVTE~KFFIW!M&-&",
"7-z/ERHVFEEEEERKFFEEE~TTREUTQQEGFGLREEEEKAFIE!N=6;",
"9<k/ERFFFEWEW~~GANLETEEEQ/EETERFFFR/EEE~KFFIE!N39:",
"43kQEUFFGRWREWRGHFU~~~EEQEE/~/UFAGRQE~E~KVVIE!Z>7;",
"e<g(EWIIYKGKTEERLUKJJKGGGGKPPJKLLLEEEIKKKRURT!Z28>",
"7<j!TEE~^FAFREW/E/JFHHAHSFFHHSGEQEEE~GNVU(EQT!M29*",
"93k'(/QEQFSF~/QELQJBVFFFAHFNFBFEEE!E~KCVLEEQ^]F<7>",
"7<ilkcE/EKIIKIKE~ELKLKITILTILIL~EEIKIIKIUE(Sjjd><>",
"86>O.3EETQE~FVFTEEEEEEEQEEQTEQEEE~VVVTEQQT(k O&*-#",
"393*&t`)QUE/GSHL!W//EQEQQE!EEEEQE~FFVT/EEW`l&-***#",
"3<3>-ebbm~ETLIPIIKIIIKKIIIIIIIIIIPIIJTE/VbMpO=O**#",
"*&>766<@9UEEEE~PFBVFVFFABFBFFVFAVH~/EQL!h+6*=>:**o",
"*&*e66e6t~(/QTEPHHFHHFHFFHHAAFFFHFTEE/!)l>t>*&*&>o",
"3-,7476<9nBNEQEPJJGGKJJJJJPPGKPJPGEQ/FNAg3w1>3:**X",
"73w836&**&&@JEEQEEEEEEE~EEEEETEEEEETE8OO,77<we6&-&",
"83w68w-****@K)EEQ!!W(/!!!!!!Q!QQ!/E!(aOO<w77663O*X",
"78663>*-*>&-MKFJFGCFFFFFFFHHHFFGGFGJHt*-<q<7763*@&",
"76,*>***=*&*63358w:*&&*&&&&**O*68363966e-**>68837>",
"963***=*>=&*666r86====:===*>>&:888w688681-@3w675y,",
"6q,*;&&&&&&>222622>=&&;*;&&&&&*26<q66222*&&*23<33;"
};
